<?xml version="1.0" encoding="utf-8"?>
<svg width="180" height="182" viewBox="0 0 180 182" fill="none" xmlns="http://www.w3.org/2000/svg">
  <defs>
    <path id="path-0" style="fill: none;" d="M 187.605 49.921 C 203.186 61.923 206.488 65.046 209.903 67.893 C 211.145 68.928 212.566 70.222 214.063 70.222 C 214.063 68.449 216.064 69.723 216.892 69.723 L 217.058 69.89 C 217.225 69.89 217.391 69.89 217.558 69.89"/>
  </defs>
  <path d="M60.7918 78.9888L60.0441 78.5581" stroke="#481549" stroke-width="1.03369" stroke-linecap="round" stroke-linejoin="round"/>
  <path d="M57.7939 77.2559L29.6535 61.0098" stroke="#481549" stroke-width="1.03369" stroke-linecap="round" stroke-linejoin="round" stroke-dasharray="1.63 1.63"/>
  <path d="M28.5269 60.3619L27.7792 59.9312L28.5269 59.5005" stroke="#481549" stroke-width="1.03369" stroke-linecap="round" stroke-linejoin="round"/>
  <path d="M30.7769 58.1983L58.9173 41.9521" stroke="#481549" stroke-width="1.03369" stroke-linecap="round" stroke-linejoin="round" stroke-dasharray="1.63 1.63"/>
  <path d="M60.0441 41.304L60.7918 40.8733" stroke="#481549" stroke-width="1.03369" stroke-linecap="round" stroke-linejoin="round"/>
  <path d="M60.7917 42.0936C61.9563 42.0936 62.9004 41.5475 62.9004 40.8738C62.9004 40.2002 61.9563 39.6541 60.7917 39.6541C59.627 39.6541 58.6829 40.2002 58.6829 40.8738C58.6829 41.5475 59.627 42.0936 60.7917 42.0936Z" fill="#481549" stroke="#481549" stroke-width="1.03369" stroke-linecap="round" stroke-linejoin="round"/>
  <path d="M140.265 114.458L141.013 114.889" stroke="#481549" stroke-width="1.03369" stroke-linecap="round" stroke-linejoin="round"/>
  <path d="M143.373 116.25L176.699 135.494" stroke="#481549" stroke-width="1.03369" stroke-linecap="round" stroke-linejoin="round" stroke-dasharray="1.7 1.7"/>
  <path d="M177.881 136.173L178.625 136.603L177.881 137.034" stroke="#481549" stroke-width="1.03369" stroke-linecap="round" stroke-linejoin="round"/>
  <path d="M175.521 138.398L142.191 157.639" stroke="#481549" stroke-width="1.03369" stroke-linecap="round" stroke-linejoin="round" stroke-dasharray="1.7 1.7"/>
  <path d="M141.013 158.321L140.265 158.752" stroke="#481549" stroke-width="1.03369" stroke-linecap="round" stroke-linejoin="round"/>
  <path d="M175.824 99.4525C175.824 98.5773 175.186 97.6539 173.939 96.9338L92.6844 50.0216C90.3999 48.7054 86.9474 48.5607 84.9696 49.7012L2.61924 97.2508C1.72338 97.7711 1.28923 98.4602 1.28923 99.1872V106.078C1.28923 106.954 1.92667 107.877 3.17399 108.597L84.4149 155.509C86.6993 156.826 90.1518 156.97 92.1296 155.826L174.48 108.277C175.376 107.76 175.81 107.067 175.813 106.344L175.824 99.4525Z" fill="#E5E5E5" stroke="#481549" stroke-width="1.03369" stroke-linecap="round" stroke-linejoin="round"/>
  <path fill-rule="evenodd" clip-rule="evenodd" d="M174.487 101.386L92.1367 148.935C90.1589 150.079 86.7064 149.934 84.4219 148.615L3.17069 101.706C0.882795 100.4 0.63471 98.3947 2.60905 97.2508L84.9594 49.7012C86.9372 48.5607 90.3897 48.7054 92.6742 50.0216L173.936 96.9303C176.217 98.25 176.465 100.245 174.487 101.386Z" stroke="#481549" stroke-width="1.03369" stroke-linecap="round" stroke-linejoin="round"/>
  <path d="M169.825 37.7415L106.064 0.928452C105.768 0.757717 105.434 0.663003 105.093 0.652781C104.751 0.642559 104.412 0.717148 104.107 0.869877L102.039 1.90356C101.74 2.05326 101.481 2.27354 101.285 2.54544C101.089 2.81734 100.963 3.13272 100.916 3.46443L93.8319 53.9394C93.7272 54.6868 93.848 55.4484 94.1789 56.1268C94.5097 56.8051 95.0356 57.3692 95.6891 57.7468L159.454 94.5632C159.75 94.7334 160.084 94.8276 160.425 94.8372C160.767 94.8468 161.105 94.7716 161.411 94.6184L163.478 93.5847C163.779 93.4369 164.039 93.2172 164.235 92.9449C164.431 92.6727 164.557 92.3563 164.602 92.0238L171.686 41.5523C171.791 40.804 171.67 40.0414 171.338 39.3623C171.007 38.6833 170.48 38.1188 169.825 37.7415Z" fill="#E5E5E5" stroke="#481549" stroke-width="1.03369" stroke-linecap="round" stroke-linejoin="round"/>
  <path d="M159.454 94.5634L95.6891 57.7469C95.0356 57.3693 94.5097 56.8052 94.1789 56.1269C93.848 55.4485 93.7272 54.6869 93.8319 53.9395L100.916 3.46455C100.963 3.1295 101.092 2.81116 101.291 2.53746C101.49 2.26376 101.753 2.04307 102.057 1.89475C102.361 1.74643 102.697 1.67503 103.035 1.6868C103.373 1.69857 103.703 1.79315 103.996 1.96226L167.758 38.7753C168.412 39.1526 168.939 39.7171 169.271 40.3961C169.602 41.0752 169.723 41.8378 169.618 42.5861L162.534 93.0576C162.487 93.393 162.359 93.7117 162.16 93.9858C161.962 94.26 161.699 94.4811 161.394 94.6298C161.09 94.7785 160.754 94.8502 160.416 94.8386C160.077 94.827 159.747 94.7325 159.454 94.5634Z" fill="white" stroke="#481549" stroke-width="1.03369" stroke-linecap="round" stroke-linejoin="round"/>
  <path d="M103.752 5.81079L97.5323 50.1215L160.198 86.3005L166.414 41.9898L103.752 5.81079Z" stroke="#481549" stroke-width="1.03369" stroke-linecap="round" stroke-linejoin="round" style="fill: #9cede8;"/>
  <path d="M160.711 92.8817C160.694 92.6069 160.603 92.342 160.447 92.1151C160.291 91.8882 160.076 91.7078 159.826 91.5931L95.9682 54.7249C94.6485 53.9634 92.3468 54.0599 90.8239 54.9385L51.5782 77.5969C50.7444 78.0759 50.3206 78.6926 50.3206 79.2784V82.724C50.3382 82.9992 50.4302 83.2644 50.5868 83.4913C50.7433 83.7183 50.9586 83.8985 51.2095 84.0127L115.067 120.881C116.383 121.642 118.689 121.546 120.212 120.667L159.457 98.0088C160.291 97.5264 160.715 96.9097 160.711 96.3273V92.8817Z" fill="#E5E5E5" stroke="#481549" stroke-width="1.03369" stroke-linecap="round" stroke-linejoin="round"/>
  <path d="M115.064 117.435L51.206 80.5671C49.8863 79.8056 50.0517 78.4756 51.5747 77.5969L90.8203 54.9385C92.3433 54.0599 94.645 53.9634 95.9646 54.7249L159.822 91.5931C161.142 92.3545 160.977 93.6846 159.454 94.5632L120.208 117.222C118.685 118.1 116.38 118.197 115.064 117.435Z" fill="white" stroke="#481549" stroke-width="1.03369" stroke-linecap="round" stroke-linejoin="round"/>
  <path d="M110.33 94.0293L91.83 83.3478C91.4228 83.1642 90.9784 83.0782 90.5321 83.0967C90.0858 83.1153 89.65 83.2378 89.2595 83.4546L80.0769 88.7575C79.3189 89.1951 79.2362 89.8601 79.8943 90.2391L98.3939 100.921C98.8011 101.106 99.2461 101.193 99.6931 101.175C100.14 101.157 100.577 101.034 100.968 100.817L110.147 95.5143C110.912 95.0767 110.995 94.4117 110.33 94.0293Z" fill="white" stroke="#481549" stroke-width="0.689125" stroke-linecap="round" stroke-linejoin="round"/>
  <path d="M90.3483 59.8313C90.8146 59.8313 91.1925 59.6138 91.1925 59.3455C91.1925 59.0771 90.8146 58.8596 90.3483 58.8596C89.8821 58.8596 89.5042 59.0771 89.5042 59.3455C89.5042 59.6138 89.8821 59.8313 90.3483 59.8313Z" fill="#B2B2B2"/>
  <path d="M93.6321 61.7268C94.0983 61.7268 94.4763 61.5093 94.4763 61.241C94.4763 60.9726 94.0983 60.7551 93.6321 60.7551C93.1659 60.7551 92.7879 60.9726 92.7879 61.241C92.7879 61.5093 93.1659 61.7268 93.6321 61.7268Z" fill="#B2B2B2"/>
  <path d="M91.9917 60.779C92.4579 60.779 92.8359 60.5615 92.8359 60.2932C92.8359 60.0249 92.4579 59.8074 91.9917 59.8074C91.5255 59.8074 91.1475 60.0249 91.1475 60.2932C91.1475 60.5615 91.5255 60.779 91.9917 60.779Z" fill="#B2B2B2"/>
  <path d="M88.6944 60.7856C89.1606 60.7856 89.5385 60.5681 89.5385 60.2998C89.5385 60.0315 89.1606 59.814 88.6944 59.814C88.2281 59.814 87.8502 60.0315 87.8502 60.2998C87.8502 60.5681 88.2281 60.7856 88.6944 60.7856Z" fill="#B2B2B2"/>
  <path d="M91.978 62.6806C92.4442 62.6806 92.8222 62.4631 92.8222 62.1948C92.8222 61.9265 92.4442 61.709 91.978 61.709C91.5118 61.709 91.1339 61.9265 91.1339 62.1948C91.1339 62.4631 91.5118 62.6806 91.978 62.6806Z" fill="#B2B2B2"/>
  <path d="M90.3345 61.7334C90.8007 61.7334 91.1786 61.5159 91.1786 61.2475C91.1786 60.9792 90.8007 60.7617 90.3345 60.7617C89.8682 60.7617 89.4903 60.9792 89.4903 61.2475C89.4903 61.5159 89.8682 61.7334 90.3345 61.7334Z" fill="#B2B2B2"/>
  <path d="M87.0405 61.7405C87.5067 61.7405 87.8846 61.523 87.8846 61.2546C87.8846 60.9863 87.5067 60.7688 87.0405 60.7688C86.5742 60.7688 86.1963 60.9863 86.1963 61.2546C86.1963 61.523 86.5742 61.7405 87.0405 61.7405Z" fill="#B2B2B2"/>
  <path d="M90.3241 63.6355C90.7903 63.6355 91.1683 63.418 91.1683 63.1497C91.1683 62.8813 90.7903 62.6638 90.3241 62.6638C89.8578 62.6638 89.4799 62.8813 89.4799 63.1497C89.4799 63.418 89.8578 63.6355 90.3241 63.6355Z" fill="#B2B2B2"/>
  <path d="M88.6805 62.6877C89.1467 62.6877 89.5247 62.4702 89.5247 62.2019C89.5247 61.9336 89.1467 61.7161 88.6805 61.7161C88.2143 61.7161 87.8363 61.9336 87.8363 62.2019C87.8363 62.4702 88.2143 62.6877 88.6805 62.6877Z" fill="#B2B2B2"/>
  <path d="M85.3865 62.6985C85.8527 62.6985 86.2307 62.481 86.2307 62.2126C86.2307 61.9443 85.8527 61.7268 85.3865 61.7268C84.9203 61.7268 84.5423 61.9443 84.5423 62.2126C84.5423 62.481 84.9203 62.6985 85.3865 62.6985Z" fill="#B2B2B2"/>
  <path d="M88.6667 64.5933C89.1329 64.5933 89.5108 64.3757 89.5108 64.1074C89.5108 63.8391 89.1329 63.6216 88.6667 63.6216C88.2004 63.6216 87.8225 63.8391 87.8225 64.1074C87.8225 64.3757 88.2004 64.5933 88.6667 64.5933Z" fill="#B2B2B2"/>
  <path d="M87.0266 63.6457C87.4928 63.6457 87.8708 63.4282 87.8708 63.1599C87.8708 62.8916 87.4928 62.6741 87.0266 62.6741C86.5604 62.6741 86.1824 62.8916 86.1824 63.1599C86.1824 63.4282 86.5604 63.6457 87.0266 63.6457Z" fill="#B2B2B2"/>
  <path d="M83.7293 63.6526C84.1955 63.6526 84.5735 63.4351 84.5735 63.1667C84.5735 62.8984 84.1955 62.6809 83.7293 62.6809C83.2631 62.6809 82.8851 62.8984 82.8851 63.1667C82.8851 63.4351 83.2631 63.6526 83.7293 63.6526Z" fill="#B2B2B2"/>
  <path d="M87.0129 65.5478C87.4791 65.5478 87.8571 65.3303 87.8571 65.062C87.8571 64.7937 87.4791 64.5762 87.0129 64.5762C86.5467 64.5762 86.1687 64.7937 86.1687 65.062C86.1687 65.3303 86.5467 65.5478 87.0129 65.5478Z" fill="#B2B2B2"/>
  <path d="M85.3729 64.6003C85.8391 64.6003 86.217 64.3828 86.217 64.1145C86.217 63.8462 85.8391 63.6287 85.3729 63.6287C84.9066 63.6287 84.5287 63.8462 84.5287 64.1145C84.5287 64.3828 84.9066 64.6003 85.3729 64.6003Z" fill="#B2B2B2"/>
  <path d="M82.0754 64.6072C82.5416 64.6072 82.9195 64.3897 82.9195 64.1213C82.9195 63.853 82.5416 63.6355 82.0754 63.6355C81.6091 63.6355 81.2312 63.853 81.2312 64.1213C81.2312 64.3897 81.6091 64.6072 82.0754 64.6072Z" fill="#B2B2B2"/>
  <path d="M85.359 66.5022C85.8252 66.5022 86.2032 66.2847 86.2032 66.0164C86.2032 65.748 85.8252 65.5305 85.359 65.5305C84.8928 65.5305 84.5148 65.748 84.5148 66.0164C84.5148 66.2847 84.8928 66.5022 85.359 66.5022Z" fill="#B2B2B2"/>
  <path d="M83.7154 65.5547C84.1816 65.5547 84.5596 65.3372 84.5596 65.0688C84.5596 64.8005 84.1816 64.583 83.7154 64.583C83.2492 64.583 82.8712 64.8005 82.8712 65.0688C82.8712 65.3372 83.2492 65.5547 83.7154 65.5547Z" fill="#B2B2B2"/>
  <path d="M80.4214 65.5615C80.8876 65.5615 81.2656 65.344 81.2656 65.0757C81.2656 64.8074 80.8876 64.5898 80.4214 64.5898C79.9552 64.5898 79.5772 64.8074 79.5772 65.0757C79.5772 65.344 79.9552 65.5615 80.4214 65.5615Z" fill="#B2B2B2"/>
  <path d="M83.7052 67.4565C84.1714 67.4565 84.5494 67.239 84.5494 66.9707C84.5494 66.7024 84.1714 66.4849 83.7052 66.4849C83.239 66.4849 82.861 66.7024 82.861 66.9707C82.861 67.239 83.239 67.4565 83.7052 67.4565Z" fill="#B2B2B2"/>
  <path d="M82.0616 66.509C82.5278 66.509 82.9058 66.2915 82.9058 66.0232C82.9058 65.7549 82.5278 65.5374 82.0616 65.5374C81.5954 65.5374 81.2174 65.7549 81.2174 66.0232C81.2174 66.2915 81.5954 66.509 82.0616 66.509Z" fill="#B2B2B2"/>
  <path d="M78.7674 66.5195C79.2337 66.5195 79.6116 66.302 79.6116 66.0337C79.6116 65.7654 79.2337 65.5479 78.7674 65.5479C78.3012 65.5479 77.9232 65.7654 77.9232 66.0337C77.9232 66.302 78.3012 66.5195 78.7674 66.5195Z" fill="#B2B2B2"/>
  <path d="M82.0478 68.4143C82.514 68.4143 82.892 68.1968 82.892 67.9285C82.892 67.6601 82.514 67.4426 82.0478 67.4426C81.5816 67.4426 81.2036 67.6601 81.2036 67.9285C81.2036 68.1968 81.5816 68.4143 82.0478 68.4143Z" fill="#B2B2B2"/>
  <path d="M80.4077 67.4668C80.8739 67.4668 81.2519 67.2493 81.2519 66.9809C81.2519 66.7126 80.8739 66.4951 80.4077 66.4951C79.9415 66.4951 79.5635 66.7126 79.5635 66.9809C79.5635 67.2493 79.9415 67.4668 80.4077 67.4668Z" fill="#B2B2B2"/>
  <path d="M77.1102 67.4736C77.5764 67.4736 77.9544 67.2561 77.9544 66.9878C77.9544 66.7195 77.5764 66.502 77.1102 66.502C76.644 66.502 76.266 66.7195 76.266 66.9878C76.266 67.2561 76.644 67.4736 77.1102 67.4736Z" fill="#B2B2B2"/>
  <path d="M80.3938 69.3689C80.86 69.3689 81.238 69.1514 81.238 68.8831C81.238 68.6147 80.86 68.3972 80.3938 68.3972C79.9276 68.3972 79.5496 68.6147 79.5496 68.8831C79.5496 69.1514 79.9276 69.3689 80.3938 69.3689Z" fill="#B2B2B2"/>
  <path d="M78.7536 68.4214C79.2198 68.4214 79.5978 68.2039 79.5978 67.9355C79.5978 67.6672 79.2198 67.4497 78.7536 67.4497C78.2874 67.4497 77.9094 67.6672 77.9094 67.9355C77.9094 68.2039 78.2874 68.4214 78.7536 68.4214Z" fill="#B2B2B2"/>
  <path d="M75.6183 68.3354C76.0846 68.3354 76.4625 68.1179 76.4625 67.8496C76.4625 67.5813 76.0846 67.3638 75.6183 67.3638C75.1521 67.3638 74.7742 67.5813 74.7742 67.8496C74.7742 68.1179 75.1521 68.3354 75.6183 68.3354Z" fill="#B2B2B2"/>
  <path d="M78.902 70.2302C79.3682 70.2302 79.7462 70.0127 79.7462 69.7444C79.7462 69.4761 79.3682 69.2585 78.902 69.2585C78.4358 69.2585 78.0578 69.4761 78.0578 69.7444C78.0578 70.0127 78.4358 70.2302 78.902 70.2302Z" fill="#B2B2B2"/>
  <path d="M77.2618 69.2829C77.728 69.2829 78.106 69.0654 78.106 68.7971C78.106 68.5288 77.728 68.3113 77.2618 68.3113C76.7956 68.3113 76.4176 68.5288 76.4176 68.7971C76.4176 69.0654 76.7956 69.2829 77.2618 69.2829Z" fill="#B2B2B2"/>
  <path d="M148.538 93.4263C149.004 93.4263 149.382 93.2087 149.382 92.9404C149.382 92.6721 149.004 92.4546 148.538 92.4546C148.072 92.4546 147.694 92.6721 147.694 92.9404C147.694 93.2087 148.072 93.4263 148.538 93.4263Z" fill="#B2B2B2"/>
  <path d="M151.818 95.3215C152.284 95.3215 152.662 95.104 152.662 94.8357C152.662 94.5674 152.284 94.3499 151.818 94.3499C151.352 94.3499 150.974 94.5674 150.974 94.8357C150.974 95.104 151.352 95.3215 151.818 95.3215Z" fill="#B2B2B2"/>
  <path d="M150.178 94.3735C150.644 94.3735 151.022 94.156 151.022 93.8877C151.022 93.6194 150.644 93.4019 150.178 93.4019C149.712 93.4019 149.334 93.6194 149.334 93.8877C149.334 94.156 149.712 94.3735 150.178 94.3735Z" fill="#B2B2B2"/>
  <path d="M146.884 94.3808C147.35 94.3808 147.728 94.1633 147.728 93.895C147.728 93.6267 147.35 93.4092 146.884 93.4092C146.418 93.4092 146.04 93.6267 146.04 93.895C146.04 94.1633 146.418 94.3808 146.884 94.3808Z" fill="#B2B2B2"/>
  <path d="M150.164 96.2756C150.631 96.2756 151.009 96.0581 151.009 95.7898C151.009 95.5215 150.631 95.304 150.164 95.304C149.698 95.304 149.32 95.5215 149.32 95.7898C149.32 96.0581 149.698 96.2756 150.164 96.2756Z" fill="#B2B2B2"/>
  <path d="M148.524 95.3284C148.99 95.3284 149.368 95.1108 149.368 94.8425C149.368 94.5742 148.99 94.3567 148.524 94.3567C148.058 94.3567 147.68 94.5742 147.68 94.8425C147.68 95.1108 148.058 95.3284 148.524 95.3284Z" fill="#B2B2B2"/>
  <path d="M145.227 95.3349C145.693 95.3349 146.071 95.1174 146.071 94.8491C146.071 94.5808 145.693 94.3633 145.227 94.3633C144.76 94.3633 144.382 94.5808 144.382 94.8491C144.382 95.1174 144.76 95.3349 145.227 95.3349Z" fill="#B2B2B2"/>
  <path d="M148.51 97.2302C148.976 97.2302 149.354 97.0127 149.354 96.7444C149.354 96.4761 148.976 96.2585 148.51 96.2585C148.044 96.2585 147.666 96.4761 147.666 96.7444C147.666 97.0127 148.044 97.2302 148.51 97.2302Z" fill="#B2B2B2"/>
  <path d="M146.87 96.2822C147.336 96.2822 147.714 96.0647 147.714 95.7964C147.714 95.5281 147.336 95.3105 146.87 95.3105C146.404 95.3105 146.026 95.5281 146.026 95.7964C146.026 96.0647 146.404 96.2822 146.87 96.2822Z" fill="#B2B2B2"/>
  <path d="M143.573 96.2929C144.039 96.2929 144.417 96.0754 144.417 95.8071C144.417 95.5388 144.039 95.3213 143.573 95.3213C143.107 95.3213 142.729 95.5388 142.729 95.8071C142.729 96.0754 143.107 96.2929 143.573 96.2929Z" fill="#B2B2B2"/>
  <path d="M146.857 98.1882C147.323 98.1882 147.701 97.9707 147.701 97.7024C147.701 97.4341 147.323 97.2166 146.857 97.2166C146.39 97.2166 146.012 97.4341 146.012 97.7024C146.012 97.9707 146.39 98.1882 146.857 98.1882Z" fill="#B2B2B2"/>
  <path d="M145.213 97.2407C145.679 97.2407 146.057 97.0232 146.057 96.7549C146.057 96.4866 145.679 96.269 145.213 96.269C144.747 96.269 144.369 96.4866 144.369 96.7549C144.369 97.0232 144.747 97.2407 145.213 97.2407Z" fill="#B2B2B2"/>
  <path d="M141.919 97.2473C142.385 97.2473 142.763 97.0298 142.763 96.7615C142.763 96.4932 142.385 96.2756 141.919 96.2756C141.453 96.2756 141.075 96.4932 141.075 96.7615C141.075 97.0298 141.453 97.2473 141.919 97.2473Z" fill="#B2B2B2"/>
  <path d="M145.203 99.1426C145.669 99.1426 146.047 98.9251 146.047 98.6567C146.047 98.3884 145.669 98.1709 145.203 98.1709C144.736 98.1709 144.358 98.3884 144.358 98.6567C144.358 98.9251 144.736 99.1426 145.203 99.1426Z" fill="#B2B2B2"/>
  <path d="M143.559 98.1951C144.025 98.1951 144.403 97.9775 144.403 97.7092C144.403 97.4409 144.025 97.2234 143.559 97.2234C143.093 97.2234 142.715 97.4409 142.715 97.7092C142.715 97.9775 143.093 98.1951 143.559 98.1951Z" fill="#B2B2B2"/>
  <path d="M140.265 98.2019C140.731 98.2019 141.109 97.9844 141.109 97.7161C141.109 97.4477 140.731 97.2302 140.265 97.2302C139.799 97.2302 139.421 97.4477 139.421 97.7161C139.421 97.9844 139.799 98.2019 140.265 98.2019Z" fill="#B2B2B2"/>
  <path d="M143.545 100.097C144.011 100.097 144.389 99.8792 144.389 99.6108C144.389 99.3425 144.011 99.125 143.545 99.125C143.079 99.125 142.701 99.3425 142.701 99.6108C142.701 99.8792 143.079 100.097 143.545 100.097Z" fill="#B2B2B2"/>
  <path d="M141.905 99.1494C142.371 99.1494 142.749 98.9319 142.749 98.6636C142.749 98.3953 142.371 98.1777 141.905 98.1777C141.439 98.1777 141.061 98.3953 141.061 98.6636C141.061 98.9319 141.439 99.1494 141.905 99.1494Z" fill="#B2B2B2"/>
  <path d="M138.608 99.1565C139.074 99.1565 139.452 98.939 139.452 98.6706C139.452 98.4023 139.074 98.1848 138.608 98.1848C138.142 98.1848 137.764 98.4023 137.764 98.6706C137.764 98.939 138.142 99.1565 138.608 99.1565Z" fill="#B2B2B2"/>
  <path d="M141.891 101.052C142.358 101.052 142.736 100.834 142.736 100.566C142.736 100.297 142.358 100.08 141.891 100.08C141.425 100.08 141.047 100.297 141.047 100.566C141.047 100.834 141.425 101.052 141.891 101.052Z" fill="#B2B2B2"/>
  <path d="M140.251 100.104C140.718 100.104 141.095 99.8862 141.095 99.6179C141.095 99.3496 140.718 99.1321 140.251 99.1321C139.785 99.1321 139.407 99.3496 139.407 99.6179C139.407 99.8862 139.785 100.104 140.251 100.104Z" fill="#B2B2B2"/>
  <path d="M136.954 100.114C137.42 100.114 137.798 99.8965 137.798 99.6282C137.798 99.3599 137.42 99.1423 136.954 99.1423C136.488 99.1423 136.11 99.3599 136.11 99.6282C136.11 99.8965 136.488 100.114 136.954 100.114Z" fill="#B2B2B2"/>
  <path d="M140.237 102.009C140.704 102.009 141.082 101.792 141.082 101.523C141.082 101.255 140.704 101.038 140.237 101.038C139.771 101.038 139.393 101.255 139.393 101.523C139.393 101.792 139.771 102.009 140.237 102.009Z" fill="#B2B2B2"/>
  <path d="M138.594 101.062C139.06 101.062 139.438 100.844 139.438 100.576C139.438 100.308 139.06 100.09 138.594 100.09C138.128 100.09 137.75 100.308 137.75 100.576C137.75 100.844 138.128 101.062 138.594 101.062Z" fill="#B2B2B2"/>
  <path d="M135.3 101.069C135.766 101.069 136.144 100.851 136.144 100.583C136.144 100.315 135.766 100.097 135.3 100.097C134.834 100.097 134.456 100.315 134.456 100.583C134.456 100.851 134.834 101.069 135.3 101.069Z" fill="#B2B2B2"/>
  <path d="M138.584 102.964C139.05 102.964 139.428 102.746 139.428 102.478C139.428 102.21 139.05 101.992 138.584 101.992C138.117 101.992 137.739 102.21 137.739 102.478C137.739 102.746 138.117 102.964 138.584 102.964Z" fill="#B2B2B2"/>
  <path d="M136.94 102.016C137.406 102.016 137.784 101.799 137.784 101.53C137.784 101.262 137.406 101.044 136.94 101.044C136.474 101.044 136.096 101.262 136.096 101.53C136.096 101.799 136.474 102.016 136.94 102.016Z" fill="#B2B2B2"/>
  <path d="M133.808 101.93C134.274 101.93 134.652 101.712 134.652 101.444C134.652 101.176 134.274 100.958 133.808 100.958C133.342 100.958 132.964 101.176 132.964 101.444C132.964 101.712 133.342 101.93 133.808 101.93Z" fill="#B2B2B2"/>
  <path d="M137.092 103.825C137.558 103.825 137.936 103.608 137.936 103.339C137.936 103.071 137.558 102.854 137.092 102.854C136.625 102.854 136.247 103.071 136.247 103.339C136.247 103.608 136.625 103.825 137.092 103.825Z" fill="#B2B2B2"/>
  <path d="M135.448 102.877C135.914 102.877 136.292 102.66 136.292 102.391C136.292 102.123 135.914 101.906 135.448 101.906C134.982 101.906 134.604 102.123 134.604 102.391C134.604 102.66 134.982 102.877 135.448 102.877Z" fill="#B2B2B2"/>
  <path d="M98.0526 66.2679L95.0687 64.5451L98.0526 62.8223L101.036 64.5451L98.0526 66.2679ZM98.0526 71.4363L90.5928 67.1293L93.5767 65.4065L101.036 69.7135L98.0526 71.4363ZM89.1009 71.4363L86.1169 69.7135L89.1009 67.9907L92.0848 69.7135L89.1009 71.4363ZM84.625 74.0205L81.6411 72.2977L84.625 70.5749L87.6089 72.2977L84.625 74.0205ZM102.528 68.8521L99.5445 67.1293L102.528 65.4065L105.512 67.1293L102.528 68.8521ZM93.5767 74.0205L90.5928 72.2977L93.5767 70.5749L96.5606 72.2977L93.5767 74.0205ZM89.1009 76.6048L86.1169 74.8819L89.1009 73.1591L92.0848 74.8819L89.1009 76.6048ZM107.004 71.4363L104.02 69.7135L107.004 67.9907L109.988 69.7135L107.004 71.4363ZM102.528 74.0205L99.5445 72.2977L102.528 70.5749L105.512 72.2977L102.528 74.0205ZM98.0526 76.6048L95.0687 74.8819L98.0526 73.1591L101.036 74.8819L98.0526 76.6048ZM93.5767 79.189L90.5928 77.4662L93.5767 75.7434L96.5606 77.4662L93.5767 79.189ZM111.48 74.0205L108.496 72.2977L111.48 70.5749L114.464 72.2977L111.48 74.0205ZM107.004 76.6048L104.02 74.8819L107.004 73.1591L109.988 74.8819L107.004 76.6048ZM102.528 79.189L99.5445 77.4662L102.528 75.7434L105.512 77.4662L102.528 79.189ZM115.956 92.1101L95.0687 80.0504L98.0526 78.3276L118.943 90.3872L115.956 92.1101ZM115.956 76.6048L112.972 74.8819L115.956 73.1591L118.943 74.8819L115.956 76.6048ZM111.48 79.189L108.496 77.4662L111.48 75.7434L114.464 77.4662L111.48 79.189ZM107.004 81.7732L104.02 80.0504L107.004 78.3276L109.988 80.0504L107.004 81.7732ZM120.432 79.189L117.451 77.4662L120.432 75.7434L123.419 77.4662L120.432 79.189ZM115.956 81.7732L112.972 80.0504L115.956 78.3276L118.943 80.0504L115.956 81.7732ZM111.48 84.3574L108.496 82.6346L111.48 80.9118L114.464 82.6346L111.48 84.3574ZM124.908 81.7732L121.924 80.0504L124.908 78.3276L127.895 80.0504L124.908 81.7732ZM120.432 84.3574L117.451 82.6346L120.432 80.9118L123.419 82.6346L120.432 84.3574ZM115.956 86.9416L112.972 85.2188L115.956 83.496L118.943 85.2188L115.956 86.9416ZM129.387 84.3574L126.4 82.6346L129.387 80.9118L132.371 82.6346L129.387 84.3574ZM124.908 86.9416L121.924 85.2188L124.908 83.496L127.895 85.2188L124.908 86.9416ZM120.432 89.5258L117.451 87.803L120.432 86.0802L123.419 87.803L120.432 89.5258ZM133.863 86.9416L130.879 85.2188L133.863 83.496L136.847 85.2188L133.863 86.9416ZM129.387 89.5258L126.4 87.803L129.387 86.0802L132.371 87.803L129.387 89.5258ZM124.908 92.1101L121.924 90.3872L124.908 88.6644L127.895 90.3872L124.908 92.1101ZM120.432 94.6943L117.451 92.9715L120.432 91.2487L123.419 92.9715L120.432 94.6943ZM142.815 92.1101L135.355 87.803L138.339 86.0802L145.799 90.3872L142.815 92.1101ZM133.863 92.1101L130.879 90.3872L133.863 88.6644L136.847 90.3872L133.863 92.1101ZM124.908 97.2785L121.924 95.5557L124.908 93.8329L127.895 95.5557L124.908 97.2785ZM138.339 94.6943L135.355 92.9715L138.339 91.2487L141.323 92.9715L138.339 94.6943ZM133.863 97.2785L126.403 92.9715L129.387 91.2487L136.847 95.5557L133.863 97.2785ZM129.387 99.8627L126.403 98.1399L129.387 96.4171L132.371 98.1399L129.387 99.8627Z" fill="white" stroke="#481549" stroke-width="0.689125" stroke-linecap="round" stroke-linejoin="round"/>
  <path d="M110.502 129.867C110.5 129.647 110.439 129.432 110.326 129.243L105.733 121.394C105.137 120.361 103.221 119.826 101.457 120.171L71.8694 125.942C70.4636 126.215 69.5781 126.976 69.5781 127.789V129.512C69.5781 129.732 69.6387 129.948 69.7538 130.136L74.3434 137.981C74.9395 139.015 76.8553 139.549 78.6229 139.205L108.207 133.437C109.616 133.161 110.502 132.403 110.502 131.59V129.867Z" fill="#9cede8" stroke="#481549" stroke-width="1.03369" stroke-linecap="round" stroke-linejoin="round"/>
  <path d="M105.73 121.395L110.329 129.244C110.926 130.277 109.985 131.37 108.21 131.714L78.6297 137.482C76.8621 137.827 74.9464 137.279 74.3503 136.259L69.7504 128.413C69.1508 127.38 70.0949 126.287 71.866 125.943L101.454 120.171C103.218 119.827 105.133 120.385 105.73 121.395Z" fill="white" stroke="#481549" stroke-width="1.03369" stroke-linecap="round" stroke-linejoin="round"/>
  <path d="M103.731 121.783L108.324 129.633C108.548 130.015 108.193 130.429 107.528 130.559L77.9407 136.327C77.2792 136.458 76.5625 136.252 76.3351 135.869L71.7386 128.024C71.5146 127.641 71.8695 127.224 72.5311 127.097L102.119 121.325C102.791 121.198 103.507 121.418 103.731 121.783Z" fill="#481549"/>
  <path d="M37.4787 73.3625L28.5269 68.1941L19.5752 73.3625V97.4819L28.5269 102.65L37.4787 97.4819V73.3625Z" fill="#9cede8" stroke="#481549" stroke-width="1.03369" stroke-linecap="round" stroke-linejoin="round"/>
  <path fill-rule="evenodd" clip-rule="evenodd" d="M28.5269 78.531L19.5752 73.3625L28.5269 68.1941L37.4787 73.3625L28.5269 78.531Z" stroke="#481549" stroke-width="1.03369" stroke-linecap="round" stroke-linejoin="round"/>
  <path d="M25.5429 76.8077L22.559 75.0849L31.5107 69.9165L34.4947 71.6393L25.5429 76.8077Z" fill="white" stroke="#481549" stroke-width="1.03369" stroke-linecap="round" stroke-linejoin="round"/>
  <path fill-rule="evenodd" clip-rule="evenodd" d="M37.4785 97.4814L28.5268 102.65V78.5305L37.4785 73.3621V97.4814Z" stroke="#481549" stroke-width="1.03369" stroke-linecap="round" stroke-linejoin="round"/>
  <path fill-rule="evenodd" clip-rule="evenodd" d="M19.5752 97.4814L28.5269 102.65V78.5305L19.5752 73.3621V97.4814Z" stroke="#481549" stroke-width="1.03369" stroke-linecap="round" stroke-linejoin="round"/>
  <path d="M22.559 80.2536L25.5429 81.9765V76.808L22.559 75.0852V80.2536Z" fill="white" stroke="#481549" stroke-width="1.03369" stroke-linecap="round" stroke-linejoin="round"/>
  <path d="M43.4464 97.4816L52.3981 92.3132L43.4464 87.1448L34.4947 92.3132L43.4464 97.4816Z" fill="#9cede8" stroke="#481549" stroke-width="1.03369" stroke-linecap="round" stroke-linejoin="round"/>
  <path d="M46.4302 95.7587L49.4141 94.0359L40.4624 88.8674L37.4785 90.5902L46.4302 95.7587Z" fill="white" stroke="#481549" stroke-width="1.03369" stroke-linecap="round" stroke-linejoin="round"/>
  <path d="M34.4947 102.65L43.4464 107.819V97.4817L34.4947 92.3132V102.65ZM52.3981 102.65L43.4464 107.819V97.4817L52.3981 92.3132V102.65Z" fill="#9cede8"/>
  <path d="M43.4464 107.819L34.4947 102.65V92.3132L43.4464 97.4817M43.4464 107.819V97.4817M43.4464 107.819L52.3981 102.65V92.3132L43.4464 97.4817" stroke="#481549" stroke-width="1.03369" stroke-linecap="round" stroke-linejoin="round"/>
  <path d="M49.4142 99.2043L46.4303 100.927V95.7587L49.4142 94.0359V99.2043Z" fill="white" stroke="#481549" stroke-width="1.03369" stroke-linecap="round" stroke-linejoin="round"/>
  <path fill-rule="evenodd" clip-rule="evenodd" d="M43.4464 87.1448L34.4947 92.3132V102.65L43.4464 107.819L52.3981 102.65V92.3132L43.4464 87.1448Z" stroke="#481549" stroke-width="1.03369" stroke-linecap="round" stroke-linejoin="round"/>
  <path d="M34.4843 96.8337L40.4522 100.279L36.917 109.996L30.9491 106.55L34.4843 96.8337Z" fill="#9cede8" stroke="#481549" stroke-width="1.03369" stroke-linecap="round" stroke-linejoin="round"/>
  <path fill-rule="evenodd" clip-rule="evenodd" d="M38.433 101.857L34.853 99.7901L34.4843 96.8337L40.4521 100.279L38.433 101.857Z" stroke="#481549" stroke-width="1.03369" stroke-linecap="round" stroke-linejoin="round"/>
  <path d="M168.171 156.316C168.154 156.041 168.062 155.776 167.906 155.549C167.75 155.322 167.536 155.142 167.286 155.027L145.203 142.278C143.886 141.517 141.581 141.613 140.062 142.492L106.78 161.705C105.95 162.187 105.526 162.8 105.526 163.386V166.832C105.544 167.106 105.635 167.371 105.791 167.598C105.947 167.825 106.161 168.006 106.412 168.12L128.495 180.869C129.811 181.631 132.116 181.534 133.639 180.655L166.917 161.443C167.751 160.96 168.171 160.347 168.171 159.761V156.316Z" fill="#9cede8" stroke="#481549" stroke-width="1.03369" stroke-linecap="round" stroke-linejoin="round"/>
  <path d="M128.491 177.423L106.408 164.675C105.092 163.913 105.258 162.583 106.777 161.705L140.058 142.492C141.578 141.613 143.883 141.517 145.199 142.278L167.282 155.027C168.602 155.788 168.436 157.118 166.913 157.997L133.636 177.21C132.113 178.088 129.808 178.185 128.491 177.423Z" fill="#9cede8" stroke="#481549" stroke-width="1.03369" stroke-linecap="round" stroke-linejoin="round"/>
  <path d="M133.863 173.633L112.972 161.574L142.815 144.345L163.702 156.405L133.863 173.633Z" fill="white" stroke="#481549" stroke-width="1.03369" stroke-linecap="round" stroke-linejoin="round"/>
  <path d="M151.232 159.327L146.474 159.313L146.464 158.042" stroke="#9cede8" stroke-width="1.37825" stroke-linecap="round" stroke-linejoin="round"/>
  <path d="M136.568 152.229L143.979 156.505" stroke="#481549" stroke-width="1.03369" stroke-linecap="round" stroke-linejoin="round"/>
  <path d="M146.26 162.197L141.502 162.184L141.492 160.912" stroke="#9cede8" stroke-width="1.37825" stroke-linecap="round" stroke-linejoin="round"/>
  <path d="M131.596 155.099L139.007 159.375" stroke="#481549" stroke-width="1.03369" stroke-linecap="round" stroke-linejoin="round"/>
  <path d="M141.292 165.067L136.533 165.053L136.52 163.779" stroke="#9cede8" stroke-width="1.37825" stroke-linecap="round" stroke-linejoin="round"/>
  <path d="M126.627 157.967L134.035 162.246" stroke="#481549" stroke-width="1.03369" stroke-linecap="round" stroke-linejoin="round"/>
  <path d="M161.325 151.581L159.237 150.375C160.884 149.424 160.884 147.881 159.237 146.93C157.59 145.979 154.916 145.979 153.269 146.93L151.181 145.724C150.441 145.348 149.623 145.153 148.793 145.153C147.963 145.153 147.145 145.348 146.405 145.724L142.825 147.791L157.745 156.405L161.325 154.338C162.634 153.576 162.634 152.343 161.325 151.581Z" fill="white" stroke="#481549" stroke-width="1.03369" stroke-linecap="round" stroke-linejoin="round"/>
  <path d="M74.1503 24.886L82.8126 29.889C83.028 30.0082 83.2076 30.1829 83.3326 30.395C83.4577 30.6071 83.5236 30.8488 83.5236 31.095C83.5236 31.3412 83.4577 31.5829 83.3326 31.795C83.2076 32.0071 83.028 32.1818 82.8126 32.301L68.6029 40.4981C66.6871 41.6042 65.7292 39.4851 67.0833 37.1421L68.7855 34.1892" stroke="#481549" stroke-width="1.03369" stroke-linecap="round" stroke-linejoin="round"/>
  <path d="M74.1572 15.5827L58.0454 27.987L55.3579 17.1332L76.8448 4.729L74.1572 15.5827Z" fill="#E5E5E5" stroke="#481549" stroke-width="1.03369" stroke-linecap="round" stroke-linejoin="round"/>
  <path d="M74.1504 24.886L57.8526 34.296C55.9403 35.402 54.9789 33.283 56.3331 30.9399L58.0387 27.987" stroke="#481549" stroke-width="1.03369" stroke-linecap="round" stroke-linejoin="round"/>
  <path d="M71.5534 30.3601C72.3403 28.9972 72.3409 27.5244 71.5548 27.0706C70.7687 26.6167 69.4936 27.3537 68.7067 28.7166C67.9198 30.0795 67.9192 31.5523 68.7053 32.0061C69.4914 32.46 70.7665 31.723 71.5534 30.3601Z" fill="white" stroke="#481549" stroke-width="1.03369" stroke-linecap="round" stroke-linejoin="round"/>
  <path d="M61.829 35.9749C62.6158 34.612 62.6165 33.1392 61.8304 32.6853C61.0443 32.2315 59.7691 32.9684 58.9822 34.3313C58.1954 35.6942 58.1947 37.167 58.9808 37.6209C59.7669 38.0747 61.0421 37.3378 61.829 35.9749Z" fill="white" stroke="#481549" stroke-width="1.03369" stroke-linecap="round" stroke-linejoin="round"/>
  <path d="M55.3579 17.1331L54.8549 15.1174C54.6757 14.3904 54.0314 14.1836 53.294 14.6109L50.7753 16.0615" stroke="#481549" stroke-width="1.03369" stroke-linecap="round" stroke-linejoin="round"/>
  <path d="M60.7846 35.3717C60.9939 35.0091 60.994 34.6173 60.7847 34.4964C60.5754 34.3756 60.236 34.5715 60.0267 34.9341C59.8174 35.2967 59.8173 35.6885 60.0266 35.8094C60.2359 35.9302 60.5753 35.7343 60.7846 35.3717Z" fill="#481549"/>
  <path d="M70.5091 29.7572C70.7184 29.3946 70.7184 29.0028 70.5091 28.8819C70.2998 28.7611 69.9604 28.957 69.7511 29.3196C69.5418 29.6822 69.5418 30.074 69.7511 30.1949C69.9604 30.3157 70.2997 30.1198 70.5091 29.7572Z" fill="#481549"/>
  <path d="M76.845 4.729L87.585 10.9311L84.9008 21.7848L74.1574 15.5827L76.845 4.729Z" fill="white" stroke="#481549" stroke-width="1.03369" stroke-linecap="round" stroke-linejoin="round"/>
  <path d="M58.0454 27.987L68.7854 34.1891L84.9006 21.7849L74.1571 15.5828L58.0454 27.987Z" fill="white" stroke="#481549" stroke-width="1.03369" stroke-linecap="round" stroke-linejoin="round"/>
  <path d="M55.3579 17.1331L58.0454 27.9868L68.7855 34.1889L66.1013 23.3352L55.3579 17.1331Z" fill="white" stroke="#481549" stroke-width="1.03369" stroke-linecap="round" stroke-linejoin="round"/>
  <path fill-rule="evenodd" clip-rule="evenodd" d="M76.8448 4.729L87.5848 10.9311L84.9006 21.7848L68.7855 34.1891L58.0454 27.987L55.3579 17.1332L76.8448 4.729Z" stroke="#481549" stroke-width="1.03369" stroke-linecap="round" stroke-linejoin="round"/>
  <path d="M84.9008 21.7851L68.7856 34.1894L66.1015 23.3356L87.5849 10.9314L84.9008 21.7851Z" fill="#E5E5E5" stroke="#481549" stroke-width="1.03369" stroke-linecap="round" stroke-linejoin="round"/>
  <path d="M82.2961 36.5615C83.083 35.1986 83.0836 33.7259 82.2975 33.272C81.5114 32.8181 80.2363 33.5551 79.4494 34.918C78.6625 36.2809 78.6619 37.7537 79.448 38.2075C80.2341 38.6614 81.5093 37.9245 82.2961 36.5615Z" fill="white" stroke="#481549" stroke-width="1.03369" stroke-linecap="round" stroke-linejoin="round"/>
  <path d="M72.5719 42.1763C73.3588 40.8134 73.3594 39.3406 72.5733 38.8867C71.7872 38.4329 70.512 39.1698 69.7251 40.5327C68.9383 41.8956 68.9376 43.3684 69.7238 43.8223C70.5099 44.2761 71.785 43.5392 72.5719 42.1763Z" fill="white" stroke="#481549" stroke-width="1.03369" stroke-linecap="round" stroke-linejoin="round"/>
  <path d="M71.5275 41.5731C71.7368 41.2105 71.7369 40.8187 71.5276 40.6978C71.3183 40.577 70.9789 40.773 70.7696 41.1355C70.5603 41.4981 70.5602 41.89 70.7695 42.0108C70.9788 42.1316 71.3182 41.9357 71.5275 41.5731Z" fill="#481549"/>
  <path d="M81.2516 35.9586C81.4609 35.596 81.461 35.2042 81.2517 35.0833C81.0424 34.9625 80.703 35.1584 80.4937 35.521C80.2843 35.8836 80.2843 36.2754 80.4936 36.3963C80.7029 36.5171 81.0423 36.3212 81.2516 35.9586Z" fill="#481549"/>
  <path d="M50.7787 16.0615L61.5222 22.2636" stroke="#9cede8" stroke-width="2.7565" stroke-linecap="round" stroke-linejoin="round"/>
  <path d="M68.7855 34.1892L65.6018 21.3198C65.4226 20.5928 64.7783 20.386 64.0375 20.8133L61.5222 22.2639" stroke="#481549" stroke-width="1.03369" stroke-linecap="round" stroke-linejoin="round"/>
  <g transform="matrix(0.921388, 0.477379, -0.206124, 0.978527, 14.617234, -9.326434)" style="transform-origin: 129.477px 44.6125px;">
    <g transform="matrix(1, 0, 0, 1, -11.533826, 16.93907)">
      <path opacity="1.000000" d="M 129.595 49.24 C 129.844 49.24 130.089 49.24 130.336 49.237 C 130.368 49.214 130.403 49.22 130.435 49.216 C 130.817 49.169 131.184 49.066 131.532 48.903 C 131.971 48.696 132.351 48.411 132.668 48.041 C 132.946 47.716 133.15 47.349 133.29 46.946 C 133.398 46.633 133.457 46.309 133.473 45.979 C 133.487 45.667 133.471 45.356 133.409 45.049 C 133.34 44.712 133.228 44.392 133.065 44.09 C 132.872 43.732 132.622 43.42 132.316 43.154 C 132.054 42.927 131.762 42.748 131.445 42.609 C 130.986 42.408 130.505 42.316 130.006 42.304 C 129.852 42.301 129.698 42.313 129.544 42.329 C 129.19 42.365 128.848 42.45 128.52 42.589 C 128.054 42.786 127.648 43.066 127.309 43.443 C 127.09 43.687 126.912 43.956 126.771 44.251 C 126.57 44.673 126.467 45.119 126.444 45.583 C 126.43 45.881 126.446 46.179 126.504 46.474 C 126.591 46.925 126.756 47.343 127.011 47.725 C 127.197 48.005 127.419 48.251 127.681 48.462 C 127.926 48.658 128.191 48.82 128.479 48.944 C 128.804 49.083 129.141 49.174 129.492 49.217 C 129.525 49.221 129.564 49.209 129.595 49.24 Z" style="fill: rgb(72, 21, 73);"/>
      <path d="M 129.431 49.713 C 129.045 49.664 128.639 49.554 128.281 49.403 C 127.962 49.263 127.638 49.066 127.367 48.851 C 127.077 48.613 126.803 48.311 126.595 48.002 C 126.315 47.573 126.113 47.065 126.013 46.57 C 125.951 46.24 125.931 45.881 125.945 45.558 C 125.974 45.05 126.101 44.509 126.32 44.035 C 126.478 43.71 126.696 43.382 126.937 43.109 C 127.32 42.693 127.815 42.35 128.325 42.129 C 128.69 41.977 129.103 41.874 129.492 41.832 C 129.653 41.815 129.84 41.802 130.018 41.804 C 130.558 41.821 131.133 41.934 131.646 42.151 C 131.993 42.306 132.349 42.525 132.644 42.777 C 132.981 43.075 133.287 43.457 133.505 43.853 C 133.684 44.191 133.821 44.581 133.899 44.95 C 133.966 45.294 133.986 45.667 133.972 46.003 C 133.953 46.366 133.88 46.76 133.762 47.11 C 133.605 47.552 133.354 48 133.048 48.366 C 132.691 48.774 132.226 49.123 131.744 49.356 C 131.358 49.533 130.916 49.658 130.497 49.712 C 130.392 49.714 130.472 49.663 130.628 49.643 L 130.087 49.714 L 129.241 49.594 C 129.461 49.625 129.568 49.708 129.431 49.713 Z M 129.546 48.74 L 129.595 48.74 C 129.844 48.74 130.086 48.74 130.33 48.737 L 130.354 48.737 C 130.379 48.727 130.387 48.722 130.373 48.72 C 130.718 48.68 131.01 48.599 131.319 48.451 C 131.715 48.27 132.011 48.048 132.288 47.716 C 132.538 47.432 132.695 47.146 132.818 46.782 C 132.916 46.506 132.961 46.253 132.974 45.955 C 132.988 45.668 132.976 45.418 132.919 45.148 C 132.859 44.843 132.772 44.593 132.625 44.327 C 132.457 44.007 132.263 43.765 131.988 43.532 C 131.759 43.329 131.531 43.19 131.244 43.067 C 130.839 42.883 130.453 42.811 129.995 42.804 C 129.866 42.8 129.743 42.811 129.596 42.826 C 129.277 42.856 129.006 42.923 128.715 43.049 C 128.294 43.222 127.976 43.439 127.681 43.777 C 127.484 43.992 127.346 44.201 127.222 44.466 C 127.039 44.837 126.96 45.187 126.943 45.607 C 126.929 45.88 126.941 46.117 126.995 46.378 C 127.069 46.784 127.196 47.112 127.427 47.447 C 127.59 47.698 127.761 47.888 127.994 48.072 C 128.213 48.25 128.42 48.377 128.676 48.485 C 128.968 48.612 129.236 48.684 129.552 48.721 C 129.534 48.724 129.533 48.731 129.546 48.74 Z" style=""/>
      <path opacity="1.000000" d="M 121.96 39.986 C 121.908 40.082 121.837 40.167 121.772 40.256 C 121.46 40.683 121.147 41.109 120.835 41.536 C 120.435 42.08 120.034 42.625 119.635 43.17 C 119.531 43.312 119.422 43.45 119.346 43.612 C 119.267 43.782 119.217 43.96 119.199 44.148 C 119.159 44.572 119.283 44.946 119.53 45.288 C 119.676 45.491 119.816 45.699 119.959 45.904 C 120.223 46.285 120.488 46.665 120.751 47.046 C 120.913 47.278 121.073 47.51 121.234 47.743 C 121.502 48.129 121.77 48.515 122.039 48.902 C 122.065 48.94 122.092 48.978 122.118 49.017 C 122.134 49.04 122.132 49.055 122.1 49.056 C 122.088 49.056 122.076 49.056 122.065 49.056 C 121.275 49.056 120.485 49.056 119.695 49.057 C 119.64 49.057 119.608 49.04 119.577 48.995 C 119.253 48.526 118.927 48.06 118.601 47.593 C 118.411 47.32 118.222 47.047 118.032 46.775 C 117.779 46.412 117.524 46.05 117.272 45.686 C 117.164 45.53 117.049 45.379 116.952 45.216 C 116.836 45.021 116.765 44.809 116.741 44.583 C 116.707 44.252 116.762 43.938 116.917 43.644 C 116.992 43.501 117.093 43.376 117.186 43.246 C 117.442 42.89 117.698 42.534 117.954 42.179 C 118.218 41.814 118.481 41.449 118.744 41.084 C 118.977 40.761 119.209 40.439 119.44 40.115 C 119.469 40.075 119.505 40.039 119.523 39.989 C 120.334 39.986 121.145 39.986 121.96 39.986 Z" style="fill: rgb(72, 21, 73);"/>
      <path d="M 122.4 40.224 C 122.32 40.361 122.231 40.475 122.176 40.551 C 121.863 40.979 121.549 41.406 121.238 41.832 C 120.838 42.376 120.437 42.921 120.038 43.465 C 119.929 43.615 119.845 43.711 119.799 43.824 C 119.734 43.956 119.707 44.051 119.697 44.195 C 119.645 44.517 119.724 44.722 119.936 44.996 C 120.086 45.205 120.229 45.418 120.37 45.619 C 120.634 46 120.898 46.379 121.162 46.761 C 121.325 46.994 121.484 47.226 121.645 47.458 C 121.913 47.844 122.183 48.233 122.452 48.62 C 122.475 48.654 122.498 48.686 122.528 48.731 C 122.566 48.799 122.655 49.059 122.596 49.218 C 122.557 49.322 122.403 49.475 122.316 49.512 C 122.26 49.536 122.145 49.552 122.1 49.556 C 122.088 49.556 122.076 49.556 122.065 49.556 C 121.275 49.556 120.485 49.556 119.695 49.557 C 119.523 49.528 119.285 49.403 119.166 49.279 C 118.842 48.811 118.517 48.346 118.191 47.879 C 118 47.605 117.811 47.332 117.622 47.061 C 117.37 46.699 117.114 46.336 116.861 45.971 C 116.759 45.824 116.635 45.658 116.522 45.472 C 116.384 45.228 116.279 44.913 116.244 44.634 C 116.212 44.234 116.295 43.779 116.474 43.411 C 116.576 43.227 116.696 43.072 116.78 42.954 C 117.036 42.598 117.293 42.241 117.549 41.886 C 117.813 41.521 118.075 41.156 118.339 40.791 C 118.571 40.469 118.805 40.145 119.035 39.822 C 119.09 39.751 119.093 39.778 119.053 39.82 L 119.37 39.49 L 119.521 39.489 C 120.333 39.486 121.145 39.486 121.96 39.486 L 122.83 39.486 Z M 120.984 40.486 C 120.585 40.486 120.186 40.487 119.788 40.488 C 119.575 40.786 119.364 41.08 119.15 41.377 C 118.887 41.741 118.624 42.106 118.359 42.472 C 118.104 42.826 117.848 43.182 117.592 43.538 C 117.49 43.68 117.408 43.774 117.36 43.876 C 117.23 44.097 117.202 44.269 117.238 44.531 C 117.251 44.704 117.288 44.814 117.382 44.96 C 117.463 45.1 117.569 45.236 117.683 45.401 C 117.934 45.764 118.188 46.125 118.442 46.489 C 118.633 46.762 118.822 47.035 119.011 47.307 C 119.301 47.723 119.592 48.139 119.882 48.557 C 120.318 48.556 120.754 48.556 121.19 48.556 C 121.068 48.38 120.946 48.204 120.823 48.028 C 120.662 47.795 120.502 47.563 120.341 47.332 C 120.079 46.952 119.813 46.571 119.548 46.189 C 119.403 45.981 119.266 45.777 119.124 45.58 C 118.842 45.17 118.673 44.627 118.701 44.101 C 118.727 43.869 118.8 43.609 118.893 43.401 C 118.999 43.191 119.133 43.009 119.232 42.875 C 119.631 42.329 120.032 41.784 120.432 41.24 C 120.616 40.989 120.8 40.737 120.984 40.486 Z" style=""/>
      <path opacity="1.000000" d="M 143.577 41.259 C 143.556 41.276 143.559 41.299 143.555 41.318 C 143.523 41.471 143.466 41.613 143.373 41.739 C 143.208 41.964 142.985 42.091 142.711 42.128 C 142.497 42.157 142.289 42.132 142.094 42.035 C 141.829 41.903 141.664 41.688 141.585 41.407 C 141.513 41.149 141.517 40.891 141.61 40.638 C 141.732 40.304 141.968 40.095 142.314 40.011 C 142.332 40.006 142.352 40.006 142.368 39.989 C 142.493 39.986 142.615 39.986 142.742 39.986 C 142.777 40.002 142.811 39.996 142.844 40.001 C 142.958 40.021 143.058 40.072 143.151 40.136 C 143.354 40.274 143.485 40.465 143.552 40.7 C 143.566 40.748 143.561 40.799 143.575 40.85 C 143.577 40.986 143.577 41.12 143.577 41.259 Z" style="fill: rgb(72, 21, 73);"/>
      <path d="M 143.892 41.648 C 143.961 41.438 144.051 41.318 144.044 41.421 C 144 41.616 143.899 41.854 143.776 42.035 C 143.533 42.329 143.142 42.556 142.778 42.623 C 142.501 42.653 142.148 42.604 141.871 42.483 C 141.519 42.279 141.225 41.907 141.103 41.541 C 141.022 41.212 141.032 40.801 141.141 40.466 C 141.332 40.031 141.737 39.671 142.185 39.528 C 142.261 39.518 142.17 39.585 142.004 39.646 L 142.354 39.516 L 142.95 39.531 C 142.837 39.528 142.817 39.505 142.93 39.509 C 143.115 39.552 143.311 39.642 143.433 39.723 C 143.701 39.926 143.93 40.253 144.032 40.561 C 144.055 40.703 144.051 40.757 144.057 40.718 L 144.072 40.625 L 144.075 40.843 C 144.076 40.925 144.077 41.008 144.077 41.09 Z M 143.075 40.857 L 143.075 40.867 L 143.093 40.982 C 143.071 40.841 143.077 40.794 143.072 40.84 C 143.039 40.678 143.007 40.622 142.87 40.549 C 142.805 40.502 142.804 40.496 142.779 40.493 C 142.784 40.491 142.781 40.489 142.77 40.486 L 142.742 40.486 C 142.615 40.486 142.538 40.486 142.439 40.488 C 142.436 40.492 142.399 40.497 142.448 40.493 C 142.209 40.521 142.133 40.577 142.08 40.81 C 142.002 40.98 142.004 41.085 142.066 41.272 C 142.103 41.468 142.139 41.527 142.317 41.587 C 142.43 41.66 142.493 41.661 142.644 41.633 C 142.828 41.626 142.883 41.599 142.97 41.443 C 143.032 41.373 143.046 41.327 143.066 41.216 C 143.066 41.28 143.07 41.232 143.077 41.227 C 143.077 41.1 143.077 40.99 143.075 40.857 Z" style=""/>
      <path opacity="1.000000" d="M 115.378 46.087 C 115.438 46.143 115.477 46.219 115.523 46.289 C 115.67 46.506 115.813 46.726 115.958 46.944 C 116.259 47.399 116.561 47.854 116.863 48.31 C 117.011 48.533 117.159 48.756 117.307 48.98 C 117.315 48.992 117.322 49.005 117.33 49.017 C 117.346 49.042 117.344 49.058 117.309 49.056 C 117.293 49.056 117.277 49.056 117.261 49.056 C 116.636 49.056 116.011 49.056 115.382 49.056 C 115.378 48.068 115.378 47.079 115.378 46.087 Z" style="fill: rgb(72, 21, 73);"/>
      <path d="M 115.719 45.721 C 115.831 45.846 115.904 45.962 115.937 46.009 C 116.087 46.23 116.231 46.452 116.375 46.668 C 116.676 47.123 116.978 47.578 117.28 48.034 C 117.428 48.257 117.575 48.478 117.723 48.703 C 117.743 48.735 117.755 48.756 117.751 48.747 C 117.785 48.814 117.867 49.08 117.8 49.24 C 117.755 49.347 117.581 49.498 117.486 49.529 C 117.428 49.548 117.355 49.556 117.309 49.556 C 117.293 49.556 117.277 49.556 117.261 49.556 C 116.636 49.556 116.011 49.556 115.382 49.556 L 114.884 49.556 L 114.882 49.058 C 114.878 48.069 114.878 47.079 114.878 46.087 L 114.878 44.784 L 115.719 45.721 Z M 116.426 48.556 C 116.244 48.28 116.061 48.005 115.879 47.73 C 115.879 47.999 115.879 48.267 115.88 48.556 C 116.08 48.556 116.249 48.556 116.426 48.556 Z" style=""/>
      <path opacity="1.000000" d="M 117.35 39.986 C 117.05 40.425 116.745 40.863 116.44 41.302 C 116.239 41.591 116.038 41.88 115.838 42.17 C 115.696 42.373 115.555 42.576 115.414 42.779 C 115.406 42.791 115.398 42.804 115.381 42.81 C 115.378 41.882 115.378 40.953 115.377 40.023 C 115.377 39.992 115.383 39.985 115.415 39.985 C 116.059 39.986 116.703 39.986 117.35 39.986 Z" style="fill: rgb(72, 21, 73);"/>
      <path d="M 117.763 40.268 C 117.462 40.709 117.155 41.149 116.85 41.587 C 116.649 41.876 116.447 42.167 116.248 42.457 C 116.106 42.659 115.971 42.853 115.83 43.056 C 115.827 43.061 115.694 43.171 115.547 43.282 L 114.884 43.782 L 114.881 42.812 C 114.878 41.883 114.878 40.953 114.877 40.023 C 114.88 39.969 114.92 39.752 115.027 39.643 C 115.133 39.534 115.354 39.489 115.416 39.485 C 116.059 39.486 116.703 39.486 117.35 39.486 L 118.297 39.486 Z M 115.877 40.486 C 115.878 40.735 115.878 40.985 115.878 41.234 C 115.929 41.162 115.979 41.089 116.03 41.017 C 116.335 40.577 116.276 40.663 116.398 40.486 C 116.178 40.486 116.1 40.486 115.877 40.486 Z" style=""/>
      <path opacity="1.000000" d="M 135.619 42.769 C 135.904 42.584 136.211 42.464 136.539 42.392 C 136.752 42.344 136.969 42.321 137.188 42.311 C 137.582 42.292 137.97 42.33 138.35 42.434 C 138.724 42.537 139.062 42.708 139.356 42.961 C 139.627 43.195 139.832 43.479 139.978 43.806 C 140.12 44.123 140.198 44.456 140.228 44.801 C 140.238 44.914 140.245 45.027 140.245 45.141 C 140.244 46.415 140.244 47.689 140.244 48.963 C 140.244 49.056 140.244 49.056 140.151 49.056 C 139.556 49.056 138.961 49.056 138.367 49.056 C 138.277 49.056 138.277 49.056 138.277 48.964 C 138.277 47.719 138.278 46.474 138.275 45.229 C 138.275 45.017 138.245 44.808 138.151 44.613 C 138.02 44.345 137.807 44.191 137.511 44.151 C 137.326 44.125 137.145 44.142 136.971 44.216 C 136.783 44.295 136.65 44.434 136.566 44.619 C 136.481 44.804 136.448 45.001 136.448 45.205 C 136.449 46.454 136.448 47.703 136.448 48.953 C 136.448 48.969 136.447 48.985 136.448 49.001 C 136.452 49.043 136.431 49.057 136.391 49.057 C 135.77 49.056 135.149 49.056 134.528 49.057 C 134.487 49.057 134.469 49.041 134.472 49 C 134.473 48.987 134.472 48.974 134.472 48.96 C 134.472 47.684 134.469 46.407 134.473 45.13 C 134.475 44.674 134.551 44.231 134.738 43.812 C 134.837 43.591 134.963 43.387 135.122 43.205 C 135.268 43.038 135.432 42.893 135.619 42.769 Z" style="fill: rgb(72, 21, 73);"/>
      <path d="M 135.347 42.35 C 135.677 42.141 136.066 41.987 136.431 41.904 C 136.672 41.851 136.93 41.823 137.164 41.812 C 137.594 41.794 138.061 41.84 138.483 41.952 C 138.903 42.073 139.339 42.296 139.683 42.583 C 139.993 42.859 140.263 43.231 140.434 43.602 C 140.592 43.964 140.69 44.377 140.726 44.758 C 140.737 44.877 140.745 45.012 140.745 45.141 C 140.744 46.415 140.744 47.689 140.744 48.963 C 140.744 49.01 140.723 49.261 140.586 49.398 C 140.449 49.535 140.198 49.556 140.151 49.556 C 139.556 49.556 138.961 49.556 138.367 49.556 C 138.322 49.556 138.067 49.533 137.931 49.394 C 137.797 49.258 137.777 49.01 137.777 48.964 C 137.777 47.719 137.778 46.473 137.775 45.229 C 137.778 45.053 137.772 44.953 137.702 44.832 C 137.649 44.657 137.624 44.641 137.441 44.646 C 137.315 44.621 137.264 44.622 137.165 44.677 C 137.06 44.698 137.057 44.712 137.02 44.828 C 136.955 44.95 136.945 45.042 136.948 45.205 C 136.949 46.454 136.948 47.703 136.948 48.953 C 136.948 48.985 136.945 48.969 136.946 48.954 C 136.938 49.071 136.876 49.322 136.77 49.417 C 136.67 49.507 136.466 49.551 136.39 49.557 C 135.77 49.556 135.149 49.556 134.528 49.557 C 134.442 49.548 134.229 49.495 134.132 49.4 C 134.032 49.301 133.981 49.074 133.974 48.969 C 133.974 48.988 133.972 48.993 133.972 48.96 C 133.972 47.685 133.969 46.406 133.973 45.128 C 133.979 44.631 134.077 44.086 134.282 43.608 C 134.396 43.357 134.562 43.091 134.746 42.876 C 134.914 42.686 135.132 42.495 135.347 42.35 Z M 135.498 43.534 C 135.364 43.683 135.278 43.824 135.194 44.016 C 135.026 44.375 134.971 44.717 134.973 45.132 C 134.969 46.273 134.971 47.415 134.972 48.556 C 135.297 48.556 135.623 48.556 135.948 48.556 C 135.948 48.689 135.948 48.821 135.948 48.953 C 135.948 48.953 135.949 49.001 135.95 49.048 C 135.962 48.973 136.015 48.75 136.102 48.673 C 136.182 48.6 136.356 48.563 136.392 48.557 C 136.244 48.557 136.096 48.557 135.948 48.556 C 135.948 48.556 135.948 48.556 135.948 48.556 C 135.948 47.439 135.949 46.322 135.948 45.205 C 135.951 44.96 136.007 44.659 136.111 44.411 C 136.242 44.157 136.505 43.892 136.777 43.755 C 137.025 43.663 137.336 43.629 137.579 43.656 C 137.987 43.741 138.391 44.033 138.6 44.393 C 138.716 44.661 138.772 44.981 138.775 45.229 C 138.778 46.339 138.777 47.447 138.777 48.556 C 139.099 48.556 139.422 48.556 139.744 48.556 C 139.744 47.418 139.744 46.279 139.745 45.141 C 139.745 45.042 139.739 44.951 139.73 44.845 C 139.706 44.535 139.648 44.282 139.522 44.01 C 139.401 43.728 139.261 43.531 139.03 43.34 C 138.786 43.12 138.545 43.001 138.218 42.916 C 137.879 42.82 137.57 42.791 137.212 42.81 C 137.008 42.819 136.833 42.836 136.649 42.88 C 136.358 42.94 136.133 43.026 135.893 43.187 C 135.734 43.29 135.622 43.39 135.498 43.534 Z" style=""/>
      <path opacity="1.000000" d="M 124.702 44.711 C 124.702 46.129 124.702 47.543 124.702 48.957 C 124.702 49.056 124.702 49.056 124.601 49.056 C 124.002 49.056 123.403 49.056 122.804 49.056 C 122.726 49.056 122.725 49.055 122.725 48.978 C 122.725 47.579 122.723 46.18 122.727 44.781 C 122.727 44.455 122.771 44.133 122.874 43.822 C 122.951 43.588 123.063 43.371 123.221 43.18 C 123.359 43.012 123.526 42.876 123.716 42.77 C 124.021 42.602 124.35 42.52 124.695 42.486 C 124.881 42.467 125.067 42.471 125.253 42.47 C 125.457 42.469 125.661 42.47 125.865 42.47 C 125.92 42.47 125.926 42.477 125.926 42.531 C 125.926 43.079 125.926 43.627 125.926 44.175 C 125.926 44.231 125.92 44.237 125.862 44.237 C 125.664 44.237 125.466 44.236 125.268 44.237 C 125.177 44.238 125.087 44.248 125.001 44.277 C 124.827 44.335 124.74 44.464 124.712 44.638 C 124.708 44.661 124.705 44.684 124.702 44.711 Z" style="fill: rgb(72, 21, 73);"/>
      <path d="M 125.202 44.74 C 125.202 46.148 125.202 47.543 125.202 48.957 C 125.202 49.007 125.18 49.263 125.039 49.401 C 124.902 49.536 124.652 49.556 124.601 49.556 C 124.002 49.556 123.403 49.556 122.804 49.556 C 122.762 49.556 122.517 49.533 122.384 49.402 C 122.249 49.268 122.225 49.02 122.225 48.978 C 122.225 47.579 122.223 46.181 122.227 44.781 C 122.229 44.421 122.286 44.021 122.399 43.665 C 122.492 43.395 122.648 43.098 122.835 42.862 C 123.008 42.659 123.249 42.463 123.475 42.332 C 123.84 42.14 124.264 42.029 124.645 41.989 C 124.861 41.968 125.071 41.971 125.251 41.97 C 125.457 41.969 125.662 41.97 125.865 41.97 C 125.921 41.97 126.154 42.009 126.272 42.129 C 126.391 42.25 126.426 42.48 126.426 42.531 C 126.426 43.079 126.426 43.627 126.426 44.175 C 126.426 44.227 126.389 44.464 126.264 44.586 C 126.143 44.703 125.914 44.737 125.862 44.737 C 125.663 44.737 125.469 44.736 125.273 44.737 C 125.239 44.737 125.219 44.736 125.202 44.738 C 125.202 44.738 125.202 44.739 125.202 44.74 Z M 123.225 48.556 C 123.551 48.556 123.876 48.556 124.202 48.556 C 124.202 47.271 124.202 45.967 124.202 44.683 L 124.205 44.656 C 124.209 44.624 124.213 44.59 124.218 44.558 C 124.286 44.284 124.541 43.958 124.843 43.803 C 124.981 43.763 125.147 43.74 125.263 43.737 C 125.317 43.737 125.371 43.737 125.426 43.737 C 125.426 43.481 125.426 43.225 125.426 42.97 C 125.369 42.97 125.312 42.97 125.255 42.97 C 125.063 42.971 124.901 42.966 124.746 42.983 C 124.437 43.011 124.203 43.063 123.958 43.207 C 123.805 43.289 123.71 43.365 123.607 43.497 C 123.479 43.644 123.411 43.781 123.349 43.978 C 123.256 44.245 123.225 44.489 123.227 44.781 C 123.223 46.038 123.225 47.297 123.225 48.556 Z" style=""/>
      <path opacity="1.000000" d="M 143.498 46.966 C 143.498 47.634 143.498 48.297 143.498 48.96 C 143.498 48.979 143.498 48.998 143.498 49.017 C 143.497 49.041 143.485 49.055 143.46 49.055 C 143.447 49.056 143.433 49.056 143.42 49.056 C 142.817 49.056 142.213 49.056 141.61 49.056 C 141.531 49.056 141.53 49.056 141.53 48.975 C 141.53 46.834 141.53 44.692 141.53 42.551 C 141.53 42.471 141.531 42.47 141.61 42.47 C 142.214 42.47 142.817 42.47 143.421 42.47 C 143.497 42.47 143.498 42.471 143.498 42.549 C 143.498 44.02 143.498 45.491 143.498 46.966 Z" style="fill: rgb(72, 21, 73);"/>
      <path d="M 143.998 46.966 C 143.998 47.634 143.998 48.297 143.998 48.96 C 143.998 48.979 143.998 49.019 143.998 49.038 C 143.984 49.12 143.928 49.309 143.848 49.392 C 143.768 49.475 143.599 49.537 143.498 49.554 C 143.466 49.555 143.433 49.556 143.42 49.556 C 142.817 49.556 142.213 49.556 141.61 49.556 C 141.571 49.556 141.322 49.535 141.187 49.399 C 141.053 49.266 141.03 49.019 141.03 48.975 C 141.03 46.834 141.03 44.692 141.03 42.551 C 141.03 42.508 141.053 42.263 141.185 42.129 C 141.318 41.994 141.567 41.97 141.61 41.97 C 142.214 41.97 142.817 41.97 143.421 41.97 C 143.462 41.97 143.713 41.995 143.846 42.131 C 143.976 42.265 143.998 42.507 143.998 42.549 C 143.998 44.02 143.998 45.491 143.998 46.966 Z M 142.998 42.97 C 142.675 42.97 142.353 42.97 142.03 42.97 C 142.03 44.832 142.03 46.694 142.03 48.556 C 142.353 48.556 142.675 48.556 142.998 48.556 C 142.998 48.027 142.998 47.498 142.998 46.966 C 142.998 45.632 142.998 44.301 142.998 42.97 Z" style=""/>
      <path opacity="1.000000" d="M 128.538 45.09 C 128.731 44.623 129.066 44.319 129.553 44.193 C 129.942 44.092 130.321 44.129 130.679 44.31 C 131.02 44.482 131.252 44.757 131.389 45.112 C 131.483 45.355 131.518 45.608 131.505 45.867 C 131.487 46.237 131.379 46.578 131.142 46.868 C 130.909 47.152 130.606 47.319 130.246 47.385 C 129.935 47.441 129.634 47.407 129.342 47.289 C 129.192 47.227 129.056 47.141 128.934 47.032 C 128.632 46.759 128.477 46.414 128.427 46.016 C 128.386 45.699 128.421 45.392 128.538 45.09 Z" style="fill: #9cede8;"/>
      <path d="M 128.076 44.899 C 128.332 44.342 128.835 43.892 129.428 43.709 C 129.904 43.601 130.458 43.657 130.904 43.864 C 131.324 44.098 131.676 44.506 131.855 44.932 C 131.964 45.231 132.015 45.586 132.004 45.892 C 131.975 46.325 131.81 46.812 131.529 47.185 C 131.223 47.53 130.77 47.784 130.335 47.877 C 129.951 47.935 129.509 47.886 129.151 47.751 C 128.963 47.669 128.754 47.537 128.599 47.403 C 128.236 47.047 128.001 46.548 127.931 46.079 C 127.89 45.702 127.944 45.263 128.076 44.899 Z M 128.923 45.952 C 128.953 46.279 129.028 46.471 129.269 46.661 C 129.357 46.744 129.42 46.784 129.531 46.826 C 129.757 46.927 129.918 46.947 130.157 46.893 C 130.441 46.854 130.595 46.775 130.755 46.551 C 130.947 46.344 130.999 46.149 131.006 45.843 C 131.021 45.63 131.002 45.479 130.923 45.292 C 130.828 45.009 130.716 44.866 130.454 44.756 C 130.184 44.601 129.981 44.583 129.679 44.677 C 129.297 44.746 129.131 44.903 129.001 45.278 C 128.902 45.514 128.882 45.695 128.923 45.952 Z" style=""/>
    </g>
  </g>
</svg>