<svg width="195" height="165" viewBox="0 0 195 165" fill="none" xmlns="http://www.w3.org/2000/svg">
<g clip-path="url(#clip0_0_536)">
<path d="M191.39 101.479C191.39 100.527 190.696 99.5225 189.339 98.7391L100.941 47.7063C98.4559 46.2706 94.6998 46.117 92.5481 47.3577L2.95786 99.0877C1.98324 99.65 1.51093 100.403 1.51093 101.191V108.688C1.51093 109.644 2.20441 110.644 3.56138 111.432L91.9446 162.464C94.4299 163.9 98.186 164.054 100.338 162.813L189.928 111.083C190.903 110.521 191.375 109.767 191.379 108.976L191.39 101.479Z" fill="#E5E5E5" stroke="#481549" stroke-width="1.12456" stroke-linecap="round" stroke-linejoin="round"/>
<path d="M65.7121 103.083L60.6216 106.022M51.8163 125.893L46.7257 128.832M32.4363 104.553L27.3495 107.492M68.1487 82.8111L63.0581 85.75M94.3698 74.5605L89.2792 77.4994" stroke="#481549" stroke-width="1.12456" stroke-linecap="round" stroke-linejoin="round"/>
<path d="M151.629 76.9707L54.2416 133.199L96.4427 157.564L193.834 101.336L151.629 76.9707Z" fill="#B2B2B2" stroke="#481549" stroke-width="1.12456" stroke-linecap="round" stroke-linejoin="round"/>
<path fill-rule="evenodd" clip-rule="evenodd" d="M189.935 103.586L100.345 155.316C98.1934 156.557 94.4374 156.403 91.9521 154.967L3.55759 103.935C1.06856 102.499 0.79866 100.332 2.94658 99.0877L92.5369 47.3577C94.6885 46.117 98.4446 46.2706 100.93 47.7063L189.336 98.7391C191.817 100.175 192.087 102.341 189.935 103.586Z" stroke="#481549" stroke-width="1.12456" stroke-linecap="round" stroke-linejoin="round"/>
<path d="M1.95702 30.8003C1.91203 33.0494 4.71969 33.1019 6.92759 32.0823C9.81772 30.7478 10.3013 28.1988 13.4013 26.1708C17.6222 23.4044 18.9267 26.6994 23.4437 23.7043C25.9889 22.0212 25.9327 20.7467 28.3168 19.296C32.7026 16.6308 33.8534 20.3419 37.3133 18.0702C41.0131 15.6262 41.7441 9.99962 45.4402 7.94916C47.8467 6.61843 49.065 8.15533 51.063 6.23233C51.9514 5.38141 52.8885 3.94946 52.9035 2.85863C52.9035 1.71158 51.8802 1.31798 50.8718 1.64785C49.4736 2.10518 48.9975 3.68706 47.4456 4.60921C44.9566 6.10862 44.3531 3.10979 41.5717 4.493C39.8773 5.34017 39.6974 6.64842 37.7406 7.75049C35.1167 9.20867 34.5544 7.40937 32.5227 8.73261C30.2173 10.232 29.9324 13.2309 27.8407 14.5766C25.4267 16.121 24.8944 12.7023 22.0455 14.0106C18.9604 15.435 17.1499 20.5293 14.4284 21.2378C13.0677 21.5901 12.7228 20.533 11.3884 21.3989C10.1513 22.2011 10.0089 23.3894 8.63318 24.4353C7.01006 25.6723 6.38405 24.6489 4.88463 25.7435C3.38521 26.8381 1.98326 29.2372 1.95702 30.8003ZM12.5054 51.3274C12.4342 52.8905 13.8661 53.2841 15.0469 52.8568C16.5464 52.3132 16.9475 50.6901 18.6231 49.5318C21.5282 47.5188 22.6565 50.8625 25.2055 48.8533C26.9973 47.4401 27.1997 45.3447 29.1677 44.1414C30.5734 43.2792 31.012 44.0252 32.204 43.0168C33.3961 42.0085 34.5881 39.9018 34.5206 38.3724C34.4419 36.5281 32.5339 36.3706 31.1132 37.2178C29.6138 38.1175 29.4039 39.6956 27.9607 40.734C25.5241 42.4883 24.4595 38.9759 22.2404 40.5278C20.2799 41.896 19.8863 45.4571 17.8246 46.6229C16.6326 47.2977 16.3252 46.3605 15.0469 47.2414C13.9224 48.0136 12.5542 49.8617 12.5054 51.3274ZM59.486 21.3465C59.441 22.3661 60.3744 22.621 61.1428 22.3436C62.1212 21.9687 62.3836 20.9304 63.4744 20.1769C65.3487 18.8649 66.0984 21.0428 67.7628 19.7346C68.9286 18.8125 69.0635 17.448 70.3418 16.6645C71.2601 16.1023 71.545 16.5858 72.321 15.9148C73.0969 15.2438 73.8766 13.8831 73.8204 12.8897C73.7679 11.6865 72.5272 11.5853 71.6013 12.14C70.6191 12.7248 70.4767 13.7557 69.5471 14.4304C67.9577 15.555 67.2642 13.3058 65.821 14.2955C64.5428 15.1876 64.2879 17.508 62.9421 18.2689C62.1662 18.7075 61.9563 18.0965 61.1316 18.6738C60.4119 19.1873 59.5309 20.3906 59.486 21.3465ZM65.2662 57.8086L63.6431 56.8715C63.5431 56.8194 63.4306 56.7961 63.3181 56.804C63.2057 56.812 63.0976 56.8509 63.0058 56.9164L61.7089 57.6661C61.4101 57.8796 61.1661 58.1606 60.9967 58.4864C60.8273 58.8121 60.7374 59.1733 60.7342 59.5404V76.9862L62.3573 77.9233L65.6036 76.049V58.5883C65.6195 58.4403 65.5967 58.2906 65.5376 58.154C65.4785 58.0174 65.385 57.8984 65.2662 57.8086ZM71.7587 54.06L70.1356 53.1229C70.0356 53.0709 69.9231 53.0475 69.8106 53.0555C69.6981 53.0634 69.5901 53.1023 69.4983 53.1679L68.2013 53.9176C67.9026 54.131 67.6586 54.4121 67.4892 54.7378C67.3198 55.0636 67.2299 55.4247 67.2267 55.7919V73.2376L68.8498 74.1747L72.0961 72.3005V54.8397C72.1131 54.6916 72.0909 54.5416 72.0317 54.4048C71.9725 54.2679 71.8783 54.1491 71.7587 54.06ZM78.2512 50.3115L76.6281 49.3744C76.528 49.3223 76.4156 49.299 76.3031 49.3069C76.1906 49.3149 76.0825 49.3538 75.9908 49.4193L74.6938 50.169C74.3951 50.3825 74.151 50.6635 73.9817 50.9893C73.8123 51.315 73.7223 51.6762 73.7192 52.0433V69.4891L75.3423 70.4262L78.5886 68.5519V51.0912C78.6056 50.9431 78.5834 50.7931 78.5241 50.6562C78.4649 50.5194 78.3708 50.4005 78.2512 50.3115ZM84.7437 46.5629L83.1206 45.6258C83.0205 45.5738 82.9081 45.5504 82.7956 45.5584C82.6831 45.5663 82.575 45.6052 82.4833 45.6708L81.1863 46.4205C80.8876 46.6339 80.6435 46.915 80.4741 47.2407C80.3047 47.5665 80.2148 47.9276 80.2117 48.2948V65.7405L81.8348 66.6777L85.081 64.8034V47.3426C85.098 47.1945 85.0758 47.0445 85.0166 46.9077C84.9574 46.7708 84.8633 46.652 84.7437 46.5629ZM91.2362 42.8144L89.613 41.8773C89.513 41.8252 89.4005 41.8019 89.2881 41.8098C89.1756 41.8178 89.0675 41.8567 88.9758 41.9222L87.6788 42.672C87.38 42.8854 87.136 43.1664 86.9666 43.4922C86.7972 43.8179 86.7073 44.1791 86.7042 44.5462V61.992L88.3273 62.9291L91.5735 61.0548V43.5941C91.5905 43.446 91.5683 43.296 91.5091 43.1591C91.4499 43.0223 91.3558 42.9034 91.2362 42.8144ZM97.7286 39.0658L96.1055 38.1062C96.0055 38.0542 95.893 38.0309 95.7805 38.0388C95.6681 38.0467 95.56 38.0856 95.4683 38.1512L94.1713 38.9009C93.8725 39.1143 93.6285 39.3954 93.4591 39.7211C93.2897 40.0469 93.1998 40.4081 93.1966 40.7752V58.2209L94.8198 59.1581L98.066 57.2838V39.8455C98.083 39.6974 98.0608 39.5474 98.0016 39.4106C97.9424 39.2737 97.8483 39.1549 97.7286 39.0658ZM104.221 35.3173L102.598 34.3577C102.498 34.3056 102.386 34.2823 102.273 34.2902C102.161 34.2982 102.052 34.3371 101.961 34.4027L100.664 35.1524C100.365 35.3658 100.121 35.6468 99.9516 35.9726C99.7822 36.2983 99.6923 36.6595 99.6891 37.0266V54.4724L101.312 55.4095L104.558 53.5352V36.097C104.576 35.9489 104.553 35.7989 104.494 35.662C104.435 35.5252 104.341 35.4063 104.221 35.3173Z" fill="white" stroke="#481549" stroke-width="1.12456" stroke-linecap="round" stroke-linejoin="round"/>
<path d="M64.6288 57.8534L63.3318 58.6031C63.033 58.8165 62.789 59.0975 62.6196 59.4233C62.4502 59.749 62.3603 60.1102 62.3572 60.4773V77.9231L65.6034 76.0488V58.5881C65.6034 57.8721 65.1648 57.5422 64.6288 57.8534ZM71.1213 54.1048L69.8243 54.8545C69.5255 55.0679 69.2815 55.349 69.1121 55.6747C68.9427 56.0005 68.8528 56.3617 68.8496 56.7288V74.1745L72.0959 72.3003V54.8395C72.0959 54.1236 71.6573 53.7937 71.1213 54.1048ZM77.6138 50.3563L76.3168 51.106C76.018 51.3194 75.774 51.6004 75.6046 51.9262C75.4352 52.2519 75.3453 52.6131 75.3421 52.9802V70.426L78.5884 68.5517V51.091C78.5884 50.375 78.1535 50.0451 77.6138 50.3563ZM84.1062 46.6077L82.8092 47.3574C82.5105 47.5708 82.2665 47.8519 82.0971 48.1776C81.9277 48.5034 81.8378 48.8646 81.8346 49.2317V66.6774L85.0809 64.8032V47.3424C85.0809 46.6265 84.646 46.2966 84.1062 46.6077ZM90.5987 42.8592L89.3017 43.6089C89.003 43.8223 88.7589 44.1033 88.5896 44.4291C88.4202 44.7548 88.3302 45.116 88.3271 45.4831V62.9289L91.5733 61.0546V43.5939C91.5733 42.8779 91.1385 42.548 90.5987 42.8592ZM97.0912 39.1106L95.7942 39.8603C95.4955 40.0737 95.2514 40.3548 95.082 40.6805C94.9127 41.0063 94.8227 41.3675 94.8196 41.7346V59.1803L98.0658 57.3061V39.8453C98.0658 39.1294 97.646 38.7995 97.0912 39.1106ZM103.584 35.3621L102.287 36.1118C101.988 36.3252 101.744 36.6063 101.575 36.932C101.405 37.2577 101.315 37.6189 101.312 37.9861V55.4318L104.558 53.5575V36.0968C104.558 35.3808 104.123 35.0509 103.584 35.3621ZM58.7736 61.5569L57.1617 60.5973C57.0616 60.5453 56.9492 60.5219 56.8367 60.5299C56.7242 60.5378 56.6162 60.5767 56.5244 60.6423L55.2237 61.392C54.9261 61.6062 54.6831 61.8876 54.5144 62.2132C54.3457 62.5388 54.2561 62.8996 54.2528 63.2663V80.712L55.8759 81.6491L59.1222 79.7749V62.3366C59.1368 62.1876 59.1123 62.0373 59.0512 61.9006C58.9901 61.7638 58.8944 61.6454 58.7736 61.5569Z" fill="white" stroke="#481549" stroke-width="1.12456" stroke-linecap="round" stroke-linejoin="round"/>
<path d="M58.1364 61.6018L56.8357 62.3515C56.538 62.5658 56.2951 62.8471 56.1264 63.1727C55.9577 63.4983 55.8681 63.8591 55.8648 64.2258V81.6715L59.111 79.7973V62.3365C59.111 61.6206 58.6612 61.2907 58.1364 61.6018ZM16.5688 85.9224L14.9494 84.9628C14.8501 84.9106 14.7382 84.8872 14.6263 84.8952C14.5143 84.9031 14.4069 84.9421 14.3159 85.0077L13.0151 85.7575C12.7171 85.9715 12.4735 86.2527 12.3042 86.5783C12.1349 86.9039 12.0446 87.2648 12.0405 87.6317V105.077L13.6636 106.015L16.9099 104.14V86.7021C16.9265 86.5536 16.9037 86.4034 16.8438 86.2665C16.7839 86.1297 16.6891 86.011 16.5688 85.9224ZM23.05 82.1738L21.4419 81.2142C21.3425 81.1621 21.2306 81.1387 21.1187 81.1466C21.0068 81.1546 20.8994 81.1936 20.8084 81.2592L19.5076 82.0089C19.2095 82.223 18.966 82.5042 18.7967 82.8298C18.6274 83.1554 18.537 83.5162 18.533 83.8832V101.329L20.1561 102.266L23.4024 100.392V82.9535C23.4177 82.804 23.3932 82.6531 23.3313 82.5162C23.2694 82.3792 23.1724 82.2611 23.05 82.1738ZM29.5537 78.4253L27.9231 77.4657C27.8238 77.4135 27.7119 77.3901 27.6 77.3981C27.4881 77.406 27.3806 77.445 27.2896 77.5107L25.9889 78.2604C25.6908 78.4744 25.4472 78.7556 25.2779 79.0812C25.1086 79.4068 25.0183 79.7677 25.0142 80.1346V97.5804L26.6374 98.5175L29.8836 96.6432V79.205C29.9015 79.0575 29.8804 78.908 29.8225 78.7712C29.7647 78.6344 29.672 78.5152 29.5537 78.4253Z" fill="white" stroke="#481549" stroke-width="1.12456" stroke-linecap="round" stroke-linejoin="round"/>
<path d="M15.9277 85.9678L14.627 86.7175C14.3289 86.9316 14.0853 87.2128 13.916 87.5384C13.7467 87.864 13.6564 88.2248 13.6523 88.5918V106.038L16.8986 104.163V86.7025C16.9061 85.9866 16.4713 85.6567 15.9277 85.9678ZM22.4277 82.2193L21.1269 82.969C20.8289 83.183 20.5853 83.4642 20.416 83.7898C20.2467 84.1154 20.1564 84.4763 20.1523 84.8432V102.289L23.3986 100.415V82.954C23.3986 82.238 22.9637 81.9081 22.4277 82.2193ZM28.9202 78.4707L27.6194 79.2204C27.3213 79.4345 27.0778 79.7157 26.9085 80.0413C26.7392 80.3669 26.6488 80.7277 26.6448 81.0947V98.5404L29.8911 96.6662V79.2054C29.8911 78.4895 29.4562 78.1596 28.9202 78.4707Z" fill="white" stroke="#481549" stroke-width="1.12456" stroke-linecap="round" stroke-linejoin="round"/>
<path d="M108.997 56.1743C108.974 55.8769 108.874 55.5907 108.706 55.3442C108.538 55.0976 108.309 54.8991 108.041 54.7685C107.332 54.3873 106.539 54.1877 105.734 54.1877C104.928 54.1877 104.136 54.3873 103.426 54.7685C103.158 54.8991 102.929 55.0976 102.761 55.3442C102.594 55.5907 102.493 55.8769 102.47 56.1743V74.917C102.494 75.2141 102.595 75.5 102.762 75.7464C102.93 75.9929 103.159 76.1915 103.426 76.3227C104.136 76.7039 104.928 76.9035 105.734 76.9035C106.539 76.9035 107.332 76.7039 108.041 76.3227C108.308 76.1915 108.537 75.9929 108.705 75.7464C108.873 75.5 108.973 75.2141 108.997 74.917V56.1743Z" fill="#B2B2B2" stroke="#481549" stroke-width="1.12456" stroke-linecap="round" stroke-linejoin="round"/>
<path d="M105.732 58.1607C107.533 58.1607 108.993 57.2712 108.993 56.174C108.993 55.0767 107.533 54.1873 105.732 54.1873C103.931 54.1873 102.47 55.0767 102.47 56.174C102.47 57.2712 103.931 58.1607 105.732 58.1607Z" fill="#B2B2B2" stroke="#481549" stroke-width="1.12456" stroke-linecap="round" stroke-linejoin="round"/>
<path d="M86.7077 49.453C86.6478 48.8457 87.3637 48.1972 87.3637 47.5787C87.3637 46.9602 86.6478 46.308 86.7077 45.7044C86.7677 45.1009 87.5961 44.5799 87.7161 43.9914C87.836 43.4028 87.2588 42.6081 87.4349 42.0271C87.6111 41.4461 88.5258 41.1125 88.7582 40.5464C88.9906 39.9804 88.582 39.1032 88.8706 38.5635C89.1593 38.0237 90.1189 37.8812 90.46 37.3714C90.8011 36.8616 90.565 35.9207 90.9548 35.4484C91.3447 34.9761 92.2368 34.9311 92.7466 34.59C93.7363 33.9228 93.7887 32.7832 93.4326 31.8536C93.1815 31.1901 92.0494 30.9876 91.7495 30.3541C91.4496 29.7206 91.9032 28.7797 91.7008 28.105C91.4984 27.4303 90.6212 26.8605 90.5237 26.137C90.4263 25.4136 91.116 24.6751 91.116 23.9516C91.116 23.2281 90.4225 22.4522 90.5237 21.7625C90.625 21.0727 91.5059 20.5067 91.7083 19.8282C91.9107 19.1497 91.4571 18.2088 91.7533 17.5791C92.0494 16.9493 93.0503 16.6569 93.4364 16.0609C93.8225 15.4649 93.6538 14.4378 94.1224 13.9018C94.5909 13.3657 95.6218 13.3845 96.1653 12.9159C96.7089 12.4473 96.8251 11.4165 97.4286 11.0416C98.0321 10.6668 99.0105 10.9704 99.6777 10.6668C100.345 10.3631 100.731 9.42225 101.421 9.21983C102.111 9.01741 102.958 9.59468 103.67 9.49722C104.382 9.39976 105.027 8.60132 105.75 8.60132C106.474 8.60132 107.137 9.39601 107.835 9.49722C108.532 9.59843 109.405 9.02116 110.084 9.21983C110.762 9.4185 111.182 10.3706 111.827 10.6668C112.471 10.9629 113.465 10.6668 114.076 11.0416C114.687 11.4165 114.803 12.4586 115.343 12.9159C115.883 13.3732 116.914 13.362 117.382 13.9018C117.851 14.4416 117.682 15.4612 118.068 16.0609C118.454 16.6607 119.451 16.9268 119.751 17.5791C120.051 18.2313 119.597 19.1535 119.796 19.8282C119.995 20.503 120.879 21.0465 120.981 21.7625C121.082 22.4784 120.385 23.2244 120.385 23.9516C120.385 24.6788 121.082 25.451 120.981 26.137C120.879 26.823 119.999 27.3928 119.796 28.0713C119.594 28.7498 120.047 29.6906 119.751 30.3204C119.455 30.9502 118.327 31.1788 118.068 31.8198C117.622 32.9444 117.907 33.6041 118.754 34.5563C119.163 35.0136 120.156 34.9311 120.546 35.4147C120.936 35.8982 120.7 36.8279 121.041 37.3377C121.382 37.8475 122.341 37.9899 122.63 38.5297C122.919 39.0695 122.506 39.9429 122.743 40.5127C122.979 41.0825 123.886 41.4011 124.066 41.9934C124.246 42.5856 123.665 43.3541 123.785 43.9576C123.905 44.5611 124.733 45.0559 124.793 45.6707C124.853 46.2855 124.133 46.9227 124.133 47.545C124.133 48.1672 124.853 48.812 124.793 49.4192C124.733 50.0265 123.905 50.5438 123.785 51.1286C123.665 51.7134 124.242 52.5118 124.066 53.0966C123.89 53.6813 122.975 54.0112 122.743 54.5735C122.51 55.1358 122.919 56.0204 122.63 56.5565C122.341 57.0925 121.382 57.2425 121.041 57.7485C120.7 58.2546 120.936 59.1992 120.546 59.6715C120.156 60.1438 119.189 60.0989 118.754 60.5337C118.319 60.9685 118.379 61.9319 117.896 62.3217C117.412 62.7116 116.482 62.4754 115.973 62.8203C115.463 63.1652 115.324 64.1173 114.781 64.4059C114.237 64.6946 113.367 64.2822 112.798 64.5184C112.228 64.7546 111.909 65.6655 111.317 65.8416C110.725 66.0178 109.956 65.4443 109.353 65.5605C108.749 65.6767 108.258 66.5126 107.64 66.5726C107.021 66.6326 106.388 65.9128 105.765 65.9128C105.143 65.9128 104.498 66.6288 103.891 66.5726C103.284 66.5164 102.767 65.6805 102.178 65.5605C101.589 65.4405 100.795 66.0216 100.214 65.8416C99.6327 65.6617 99.2953 64.7508 98.7331 64.5184C98.1708 64.286 97.2899 64.6946 96.7501 64.4059C96.2103 64.1173 96.0678 63.1577 95.558 62.8166C95.0482 62.4754 94.1074 62.7116 93.635 62.3217C93.1627 61.9319 93.2077 60.9648 92.7766 60.5299C92.3455 60.0951 91.3747 60.1551 90.9848 59.6715C90.595 59.188 90.8311 58.2583 90.49 57.7485C90.1489 57.2387 89.1893 57.1 88.9006 56.5565C88.612 56.0129 89.0243 55.1433 88.7882 54.5735C88.552 54.0037 87.6636 53.6851 87.4649 53.0966C87.2663 52.5081 87.866 51.7359 87.7461 51.1286C87.6261 50.5213 86.7752 50.0677 86.7077 49.453Z" fill="#9cede8" stroke="#481549" stroke-width="1.12456" stroke-linecap="round" stroke-linejoin="round"/>
<path d="M114.042 36.8801C113.446 37.255 112.46 36.9551 111.793 37.255C111.126 37.5549 110.74 38.5032 110.05 38.7019C109.36 38.9006 108.513 38.3271 107.801 38.4245C107.089 38.522 106.444 39.3242 105.717 39.3242C104.99 39.3242 104.334 38.5257 103.636 38.4245C102.939 38.3233 102.066 38.9043 101.387 38.7019C100.709 38.4995 100.289 37.5511 99.6441 37.255C98.9993 36.9588 98.006 37.255 97.395 36.8801" stroke="#481549" stroke-width="1.12456" stroke-linecap="round" stroke-linejoin="round"/>
<path d="M42.5013 96.3212C42.1239 96.129 41.7065 96.0288 41.283 96.0288C40.8595 96.0288 40.442 96.129 40.0647 96.3212C39.9252 96.3819 39.8046 96.479 39.7155 96.6023C39.6265 96.7257 39.5723 96.8707 39.5587 97.0222V114.854C39.5728 115.006 39.6272 115.151 39.7161 115.275C39.805 115.399 39.9254 115.497 40.0647 115.559C40.4426 115.749 40.8598 115.848 41.283 115.848C41.7061 115.848 42.1234 115.749 42.5013 115.559C42.6401 115.497 42.7599 115.399 42.8482 115.275C42.9365 115.151 42.9901 115.006 43.0036 114.854V97.0222C42.9907 96.871 42.9372 96.726 42.8488 96.6027C42.7604 96.4793 42.6403 96.3821 42.5013 96.3212Z" fill="white" stroke="#481549" stroke-width="1.12456" stroke-linecap="round" stroke-linejoin="round"/>
<path d="M48.5813 90.3231L37.2945 83.8119C36.8671 83.5645 36.2786 83.6019 35.6301 83.9768C34.9469 84.4227 34.3784 85.0233 33.9707 85.7299C33.563 86.4366 33.3276 87.2294 33.2835 88.044V93.4719L44.5591 99.9831L49.2898 97.2692V91.845C49.2898 91.0953 49.0087 90.5855 48.5813 90.3231Z" fill="#9cede8" stroke="#481549" stroke-width="1.12456" stroke-linecap="round" stroke-linejoin="round"/>
<path d="M46.9208 90.4885C46.2371 90.9341 45.668 91.5346 45.2597 92.2412C44.8514 92.9479 44.6152 93.7407 44.5704 94.5556V99.9835L49.2899 97.2696V91.8454C49.2899 90.346 48.2178 89.7387 46.9208 90.4885Z" fill="#9cede8" stroke="#481549" stroke-width="1.12456" stroke-linecap="round" stroke-linejoin="round"/>
<path d="M39.045 93.4049L36.0762 88.052" stroke="#481549" stroke-width="1.12456" stroke-linecap="round" stroke-linejoin="round"/>
<path d="M37.0659 89.8363L36.0763 88.052L34.0071 89.229L34.9967 91.0096L37.0659 89.8363Z" fill="white" stroke="#481549" stroke-width="1.12456" stroke-linecap="round" stroke-linejoin="round"/>
<path d="M137.22 118.801L133.973 116.927C133.092 116.417 131.874 116.492 130.528 117.268C127.841 118.82 125.655 122.595 125.655 125.702C125.655 127.254 126.199 128.345 127.083 128.855L130.33 130.729C131.211 131.239 132.425 131.164 133.771 130.388C136.462 128.836 138.644 125.057 138.644 121.954C138.644 120.402 138.1 119.311 137.22 118.801ZM176.174 96.3099L172.928 94.4356C172.047 93.9258 170.829 94.0008 169.487 94.7767C166.796 96.3286 164.614 100.103 164.614 103.211C164.614 104.763 165.161 105.854 166.042 106.363L169.288 108.238C170.169 108.748 171.388 108.673 172.733 107.897C175.421 106.345 177.606 102.566 177.606 99.4624C177.603 97.9105 177.055 96.8197 176.174 96.3099Z" fill="#E5E5E5" stroke="#481549" stroke-width="1.12456" stroke-linecap="round" stroke-linejoin="round"/>
<path d="M176.635 72.6603L150.662 57.6661C148.296 56.2979 144.522 56.7102 140.267 59.1655V70.4111L166.237 85.4053L179.226 77.9082C179.226 75.378 178.258 73.5974 176.635 72.6603Z" fill="white" stroke="#481549" stroke-width="1.12456" stroke-linecap="round" stroke-linejoin="round"/>
<path d="M158.121 76.9707L184.095 91.9649L182.472 92.902L156.498 77.9078L158.121 76.9707Z" fill="white" stroke="#481549" stroke-width="1.12456" stroke-linecap="round" stroke-linejoin="round"/>
<path d="M91.5734 113.519L140.267 85.4051V55.4167L91.5734 83.5308V113.519Z" fill="#B2B2B2" stroke="#481549" stroke-width="1.12456" stroke-linecap="round" stroke-linejoin="round"/>
<path d="M117.543 109.771L91.5734 94.7769V83.5312L117.543 98.5254V109.771ZM115.92 129.451L89.9503 114.457V118.205L115.92 133.199V129.451Z" fill="white" stroke="#481549" stroke-width="1.12456" stroke-linecap="round" stroke-linejoin="round"/>
<path d="M115.92 99.4626L89.9503 84.4684V88.2169L115.92 103.211V99.4626ZM89.9503 84.4684L91.5734 83.5312L117.543 98.5254L115.92 99.4626L89.9503 84.4684ZM89.9503 114.457L91.5734 113.52L117.543 128.514L115.92 129.451L89.9503 114.457Z" fill="white"/>
<path d="M115.92 99.4626L89.9503 84.4684M115.92 99.4626V103.211L89.9503 88.2169V84.4684M115.92 99.4626L117.543 98.5254L91.5734 83.5312L89.9503 84.4684M89.9503 114.457L91.5734 113.52L117.543 128.514L115.92 129.451L89.9503 114.457Z" stroke="#481549" stroke-width="1.12456" stroke-linecap="round" stroke-linejoin="round"/>
<path d="M91.5734 83.5309L117.543 98.525L166.237 70.4109L140.267 55.4167L91.5734 83.5309Z" fill="white" stroke="#481549" stroke-width="1.12456" stroke-linecap="round" stroke-linejoin="round"/>
<path d="M163.426 105.771L123.601 128.765C122.049 129.661 120.79 128.708 120.79 126.639L166.237 100.399C166.245 102.469 164.981 104.875 163.426 105.771Z" fill="#481549" stroke="#481549" stroke-width="1.12456" stroke-linecap="round" stroke-linejoin="round"/>
<path d="M117.543 128.513L166.237 100.399V70.4109L117.543 98.525V128.513ZM166.245 85.4051L179.233 77.908L182.202 83.0547C182.395 83.4191 182.491 83.8269 182.48 84.2393V94.7764L169.491 102.274C167.699 103.308 166.245 102.468 166.245 100.399V85.4051Z" fill="#E5E5E5" stroke="#481549" stroke-width="1.12456" stroke-linecap="round" stroke-linejoin="round"/>
<path d="M182.472 92.5273L169.483 100.024C168.767 100.437 168.186 100.099 168.186 99.2747V84.2805" stroke="#481549" stroke-width="0.749709" stroke-linecap="round" stroke-linejoin="round"/>
<path d="M170.135 89.3898V87.3056C170.161 86.8472 170.293 86.4011 170.522 86.0032C170.752 85.6054 171.071 85.267 171.455 85.0152L177.003 81.814C177.501 81.5253 177.962 81.5891 178.184 81.9752L179.923 84.974C180.115 85.3386 180.209 85.7467 180.197 86.1585V87.4555L173.502 91.3353C171.642 92.4074 170.135 91.5339 170.135 89.3898Z" fill="#481549" stroke="#481549" stroke-width="1.12456" stroke-linecap="round" stroke-linejoin="round"/>
<path d="M182.472 92.9026V94.7769L177.599 97.5883V101.337L182.472 98.5254C182.944 98.2172 183.337 97.802 183.619 97.3136C183.901 96.8252 184.064 96.2772 184.095 95.714V91.9655L182.472 92.9026ZM166.245 74.1599C173.423 70.014 179.233 71.6933 179.233 77.9084L166.245 85.4055V74.1599Z" fill="#E5E5E5" stroke="#481549" stroke-width="1.12456" stroke-linecap="round" stroke-linejoin="round"/>
<path d="M176.175 104.263C178.077 100.969 178.076 97.4089 176.174 96.3106C174.272 95.2123 171.188 96.9919 169.287 100.286C167.385 103.579 167.386 107.139 169.288 108.238C171.19 109.336 174.274 107.556 176.175 104.263Z" fill="#E5E5E5" stroke="#481549" stroke-width="1.12456" stroke-linecap="round" stroke-linejoin="round"/>
<path d="M173.88 102.938C174.514 101.84 174.513 100.654 173.878 100.287C173.243 99.921 172.215 100.513 171.582 101.611C170.948 102.708 170.949 103.894 171.584 104.261C172.219 104.627 173.247 104.035 173.88 102.938Z" fill="#E5E5E5" stroke="#481549" stroke-width="1.12456" stroke-linecap="round" stroke-linejoin="round"/>
<path d="M117.543 128.513L115.92 129.45V133.199L117.543 132.262V128.513ZM120.79 126.639L117.543 128.513V132.262L120.79 126.639ZM117.543 98.5249L115.92 99.462V103.211L117.543 102.273V98.5249Z" fill="#E5E5E5"/>
<path d="M117.543 128.513L115.92 129.45V133.199L117.543 132.262M117.543 128.513V132.262M117.543 128.513L120.79 126.639L117.543 132.262M117.543 98.5249L115.92 99.462V103.211L117.543 102.273V98.5249Z" stroke="#481549" stroke-width="1.12456" stroke-linecap="round" stroke-linejoin="round"/>
<path d="M179.222 77.9086C179.222 74.801 173.415 75.637 166.237 79.7829" stroke="#481549" stroke-width="0.749709" stroke-linecap="round" stroke-linejoin="round"/>
<path d="M168.186 94.0345C168.958 93.5884 169.584 93.952 169.584 94.8404C169.558 95.3256 169.418 95.7977 169.175 96.2185C168.932 96.6393 168.593 96.9968 168.186 97.262V94.0345Z" fill="#481549"/>
<path d="M137.221 126.753C139.122 123.459 139.122 119.899 137.219 118.801C135.317 117.703 132.233 119.482 130.332 122.776C128.43 126.069 128.431 129.63 130.333 130.728C132.235 131.826 135.319 130.047 137.221 126.753Z" fill="#E5E5E5" stroke="#481549" stroke-width="1.12456" stroke-linecap="round" stroke-linejoin="round"/>
<path d="M134.925 125.428C135.559 124.33 135.558 123.144 134.923 122.777C134.288 122.411 133.26 123.003 132.627 124.101C131.993 125.198 131.994 126.384 132.629 126.751C133.264 127.117 134.292 126.525 134.925 125.428Z" fill="#E5E5E5" stroke="#481549" stroke-width="1.12456" stroke-linecap="round" stroke-linejoin="round"/>
<path d="M180.002 82.3274L182.517 83.7818L180.197 87.4666" stroke="#481549" stroke-width="0.749709" stroke-linecap="round" stroke-linejoin="round"/>
<path d="M182.809 83.9504L182.228 83.613C181.748 83.3356 181.359 83.613 181.359 84.2727V85.9708C181.364 86.2969 181.445 86.6173 181.596 86.9063C181.747 87.1953 181.963 87.4449 182.228 87.6352L182.809 87.9688C183.289 88.2462 183.679 87.9501 183.679 87.3091V85.611C183.674 85.2854 183.593 84.9656 183.442 84.6772C183.291 84.3887 183.074 84.1398 182.809 83.9504Z" fill="#B2B2B2" stroke="#481549" stroke-width="1.12456" stroke-linecap="round" stroke-linejoin="round"/>
<path d="M91.5735 113.519L117.543 128.514V109.771L107.805 104.148L91.5735 113.519ZM81.1263 137.971C81.1263 137.368 80.5341 136.67 78.7835 136.67C78.3735 136.677 77.9687 136.764 77.5926 136.928C77.2165 137.091 76.8765 137.327 76.5922 137.623C76.3078 137.918 76.0848 138.267 75.9359 138.649C75.787 139.031 75.7152 139.439 75.7247 139.849C75.7247 140.31 76.1708 140.756 76.9579 140.948C77.985 141.199 79.1733 140.921 79.6082 140.329L80.9651 138.477C81.0788 138.334 81.1362 138.154 81.1263 137.971ZM92.6081 140.419C92.6071 140.375 92.6009 140.331 92.5894 140.288C92.417 139.006 89.8042 138.001 87.064 138.545C85.857 138.785 85.3772 140.198 85.3584 141.195C85.3566 141.206 85.3566 141.217 85.3584 141.229V141.262C85.3684 141.413 85.4232 141.556 85.5159 141.675C85.9507 142.271 87.1353 142.548 88.1661 142.297L91.3749 141.514C92.1508 141.315 92.6156 140.876 92.6081 140.419ZM76.853 102.757C75.4623 102.757 74.229 104.935 74.229 107.421C74.229 109.906 76.1033 113.606 78.8285 113.606C81.5537 113.606 80.4441 102.757 76.853 102.757Z" fill="#481549" stroke="#481549" stroke-width="1.12456" stroke-linecap="round" stroke-linejoin="round"/>
<path d="M88.5785 107.068L98.3172 101.445L88.5785 95.8223L78.8398 101.445L88.5785 107.068Z" fill="#9cede8" stroke="#481549" stroke-width="1.12456" stroke-linecap="round" stroke-linejoin="round"/>
<path d="M91.8246 105.194L95.0708 103.319L85.3321 97.6965L82.0859 99.5708L91.8246 105.194Z" fill="white" stroke="#481549" stroke-width="1.12456" stroke-linecap="round" stroke-linejoin="round"/>
<path d="M78.8398 112.691L88.5785 118.314V107.068L78.8398 101.445V112.691ZM98.3172 112.691L88.5785 118.314V107.068L98.3172 101.445V112.691Z" fill="#9cede8"/>
<path d="M88.5785 118.314L78.8398 112.691V101.445L88.5785 107.068M88.5785 118.314V107.068M88.5785 118.314L98.3172 112.691V101.445L88.5785 107.068" stroke="#481549" stroke-width="1.12456" stroke-linecap="round" stroke-linejoin="round"/>
<path d="M95.0708 108.942L91.8245 110.816V105.194L95.0708 103.319V108.942Z" fill="white" stroke="#481549" stroke-width="1.12456" stroke-linecap="round" stroke-linejoin="round"/>
<path fill-rule="evenodd" clip-rule="evenodd" d="M88.5785 95.8223L78.8398 101.445V112.691L88.5785 118.314L98.3172 112.691V101.445L88.5785 95.8223Z" stroke="#481549" stroke-width="1.12456" stroke-linecap="round" stroke-linejoin="round"/>
<path d="M81.1302 126.238C82.6671 127.573 84.8037 131.037 84.8037 131.037C84.8037 131.037 86.052 138.612 86.172 139.137C86.3181 139.756 86.9217 140.044 87.5964 140.044C88.4248 140.044 88.8147 139.67 88.9009 138.946C88.9571 138.462 89.0246 132.907 89.227 130.351C89.2944 129.501 89.2158 128.647 88.9946 127.824C88.3948 125.575 87.1578 121.017 86.8392 120.376C86.2057 119.105 85.8496 118.265 85.0811 117.707C83.8366 116.803 81.1227 115.833 78.6036 115.833C76.407 115.833 74.4427 117.07 74.4427 118.423C74.4427 121.796 76.6919 138.29 76.5944 137.713C76.6494 137.958 76.7905 138.175 76.992 138.325C77.1935 138.475 77.4422 138.548 77.6927 138.53C78.2588 138.53 79.1059 138.403 79.2259 137.6C79.4396 136.172 81.1302 126.238 81.1302 126.238ZM81.1302 126.238C80.8303 126.107 80.118 125.894 80.118 125.894L81.1302 126.238Z" fill="#9cede8"/>
<path d="M81.1302 126.238C82.6671 127.573 84.8037 131.037 84.8037 131.037C84.8037 131.037 86.052 138.612 86.172 139.137C86.3181 139.756 86.9217 140.044 87.5964 140.044C88.4248 140.044 88.8147 139.67 88.9009 138.946C88.9571 138.462 89.0246 132.907 89.227 130.351C89.2944 129.501 89.2158 128.647 88.9946 127.824C88.3948 125.575 87.1578 121.017 86.8392 120.376C86.2057 119.105 85.8496 118.265 85.0811 117.707C83.8366 116.803 81.1227 115.833 78.6036 115.833C76.407 115.833 74.4427 117.07 74.4427 118.423C74.4427 121.796 76.6919 138.29 76.5944 137.713C76.6494 137.958 76.7905 138.175 76.992 138.325C77.1935 138.475 77.4422 138.548 77.6927 138.53C78.2588 138.53 79.1059 138.403 79.2259 137.6C79.4396 136.172 81.1302 126.238 81.1302 126.238ZM81.1302 126.238C80.8303 126.107 80.118 125.894 80.118 125.894" stroke="#481549" stroke-width="1.12456" stroke-linecap="round" stroke-linejoin="round"/>
<path d="M86.839 119.161C86.839 115.142 85.4858 108.024 85.4858 108.024C85.4722 107.874 85.4255 107.729 85.349 107.599C85.2725 107.469 85.1681 107.358 85.0434 107.274L77.7788 103.072C77.5938 102.975 77.3841 102.935 77.1764 102.958C76.9687 102.98 76.7725 103.065 76.613 103.199C74.4351 104.957 73.8315 112.425 73.8315 118.471C73.8315 120.9 76.7104 123.01 79.9079 123.01C83.9264 123.01 86.839 121.995 86.839 119.161Z" fill="#481549" stroke="#481549" stroke-width="1.12456" stroke-linecap="round" stroke-linejoin="round"/>
<path d="M80.429 94.5815C79.4805 94.5815 78.5709 94.9583 77.9003 95.629C77.2296 96.2996 76.8528 97.2092 76.8528 98.1577V101.381C76.8528 102.277 77.1902 103.141 77.7975 103.799V105.077C77.8142 105.259 77.8793 105.434 77.9861 105.582C78.0929 105.73 78.2374 105.847 78.4047 105.921C78.8573 106.15 79.3575 106.27 79.8648 106.27C80.3721 106.27 80.8723 106.15 81.3249 105.921C81.4912 105.847 81.6348 105.729 81.7409 105.581C81.8469 105.433 81.9117 105.259 81.9284 105.077V104.624C82.5471 104.337 83.0709 103.88 83.4382 103.305C83.8055 102.731 84.0009 102.063 84.0013 101.381V98.1577C84.0013 97.2099 83.6251 96.3008 82.9552 95.6303C82.2854 94.9597 81.3768 94.5825 80.429 94.5815Z" fill="white" stroke="#481549" stroke-width="1.12456" stroke-linecap="round" stroke-linejoin="round"/>
<path d="M83.1091 98.3978C83.1091 98.3978 85.7331 97.2395 86.4154 96.6285C87.0976 96.0175 85.6657 95.0991 84.7623 94.7955C83.3261 94.2599 81.7451 94.2599 80.309 94.7955C79.5477 95.0451 78.8059 95.3508 78.0898 95.7101L83.1091 98.3978Z" fill="#9cede8" stroke="#481549" stroke-width="1.12456" stroke-linecap="round" stroke-linejoin="round"/>
<path d="M76.8155 97.8016C75.9345 98.6713 75.9908 99.2411 75.9608 100.051C75.9308 100.86 75.9608 102.926 77.6701 103.889C79.5219 104.935 81.6398 103.286 81.6398 101.79C81.6398 100.759 81.8835 100.208 82.2509 100.051C82.6182 99.8933 82.5432 100.8 82.5432 100.8C82.6998 100.757 82.8378 100.663 82.9365 100.534C83.0352 100.405 83.0892 100.247 83.0905 100.084C83.0905 99.2261 82.7981 97.0857 81.8235 97.0857C80.8489 97.0857 78.9821 95.665 76.8155 97.8016Z" fill="#481549"/>
<path d="M83.6378 107.308C82.0297 107.983 82.1721 110.963 83.0905 113.729C84.0089 116.496 85.7408 118.419 87.5026 119.123C89.7292 120.016 93.5227 117.845 93.4478 115.502L90.374 117.275C90.374 117.275 88.4172 111.585 87.7162 110.359C86.9328 108.999 85.6096 106.483 83.6378 107.308Z" fill="#481549" stroke="#481549" stroke-width="1.12456" stroke-linecap="round" stroke-linejoin="round"/>
<path d="M83.9864 96.415L83.0267 94.6382C82.874 94.3593 82.6595 94.119 82.3996 93.9358C82.1397 93.7526 81.8413 93.6312 81.5273 93.5811L79.6718 93.2925C79.3428 93.2407 79.0063 93.264 78.6875 93.3608C78.3688 93.4575 78.076 93.6251 77.8313 93.851L76.3693 95.2005C76.2084 95.3498 76.0847 95.5347 76.0079 95.7404C75.9311 95.946 75.9034 96.1668 75.927 96.385L76.0657 97.6745C76.1257 98.2068 76.5755 98.6979 77.4077 99.0202C78.3476 99.3243 79.3412 99.426 80.3232 99.3188C81.3052 99.2115 82.2534 98.8977 83.1055 98.398C84.0276 97.787 84.3162 97.1385 83.9864 96.415Z" fill="#9cede8" stroke="#481549" stroke-width="1.12456" stroke-linecap="round" stroke-linejoin="round"/>
</g>
<defs>
<clipPath id="clip0_0_536">
<rect width="193.8" height="163.812" fill="white" transform="translate(0.933594 0.620117)"/>
</clipPath>
</defs>
</svg>
