<svg width="200" height="164" viewBox="0 0 200 164" fill="none" xmlns="http://www.w3.org/2000/svg">
<path d="M199.183 95.6971C199.183 94.7053 198.459 93.6667 197.044 92.8499L104.827 39.896C102.235 38.4063 98.3163 38.2468 96.0717 39.5343L2.59992 93.2077C1.5832 93.7912 1.09048 94.573 1.09048 95.3937V103.173C1.09048 104.161 1.81392 105.203 3.22951 106.016L95.4421 158.974C98.0348 160.464 101.953 160.623 104.198 159.336L197.658 105.659C198.674 105.075 199.167 104.293 199.171 103.476L199.183 95.6971Z" fill="#E5E5E5"/>
<path d="M106.908 41.0898L5.30994 99.4348V107.171M113.681 44.9795L12.0829 103.324V111.104M120.454 48.8692L18.8558 107.214V114.943M127.226 52.7588L25.6287 111.104V118.883M133.999 56.6485L32.4016 114.993V122.773M140.772 60.5382L39.1785 118.883V126.662M147.545 64.4278L45.9514 122.773V130.552M154.318 68.3175L52.7243 126.662V134.442M161.091 72.2071L59.4972 130.552V138.331M167.864 76.0968L66.2701 134.442V142.221M174.637 79.9865L73.0431 138.331V146.154M181.41 83.8761L79.816 142.221V150.055M188.183 87.7658L86.5889 146.111V153.89M194.96 91.6555L93.3618 150V157.834" stroke="white" stroke-width="0.733462" stroke-linecap="round" stroke-linejoin="round"/>
<path d="M93.3618 41.0898L194.96 99.4348V107.214M86.5889 44.9795L188.183 103.324V111.104M79.816 48.8692L181.41 107.214V114.993M73.0431 52.7588L174.637 111.104V118.883M66.2701 56.6485L167.864 114.993V122.773M59.4972 60.5382L161.091 118.883V126.666M52.7243 64.4278L154.318 122.773V130.552M45.9475 68.3175L147.545 126.662V134.457M39.1785 72.2071L140.772 130.552V138.331M32.4016 76.0968L133.999 134.442V142.225M25.6287 79.9865L127.226 138.331V146.154M18.8558 83.8761L120.454 142.221V150.055M12.0829 87.7658L113.681 146.111V153.89M5.30994 91.6555L106.908 150V157.834" stroke="white" stroke-width="0.733462" stroke-linecap="round" stroke-linejoin="round"/>
<path fill-rule="evenodd" clip-rule="evenodd" d="M197.666 97.8753L104.206 151.553C101.961 152.84 98.0427 152.681 95.45 151.191L3.23742 98.241C0.640876 96.7512 0.359322 94.503 2.60002 93.2077L96.0601 39.5304C98.3047 38.2429 102.223 38.4024 104.816 39.8921L197.04 92.8499C199.629 94.3396 199.91 96.5917 197.666 97.8753Z" stroke="#481549" stroke-width="1.10019" stroke-linecap="round" stroke-linejoin="round"/>
<path d="M95.047 51.7824V1.2168M199.183 95.6967C199.183 94.7048 198.459 93.6663 197.044 92.8495L104.827 39.8956C102.234 38.4059 98.3161 38.2464 96.0715 39.5339L2.59971 93.2073C1.58299 93.7908 1.09027 94.5726 1.09027 95.3933V103.173C1.09027 104.161 1.81371 105.203 3.22929 106.016L95.4419 158.974C98.0346 160.463 101.953 160.623 104.197 159.335L197.658 105.658C198.674 105.075 199.167 104.293 199.171 103.476L199.183 95.6967Z" stroke="#481549" stroke-width="1.10019" stroke-linecap="round" stroke-linejoin="round"/>
<path d="M125.525 65.3965L95.0473 47.8931L78.115 57.6172L108.593 75.1207L125.525 65.3965Z" fill="white" stroke="#481549" stroke-width="1.10019" stroke-linecap="round" stroke-linejoin="round"/>
<path d="M95.0473 51.7825L84.8879 45.948L95.0473 40.1135L105.207 45.948L95.0473 51.7825Z" fill="#9cede8" stroke="#481549" stroke-width="1.10019" stroke-linecap="round" stroke-linejoin="round"/>
<path d="M91.6609 49.8379L88.2744 47.8931L98.4338 42.0586L101.82 44.0034L91.6609 49.8379Z" fill="white" stroke="#481549" stroke-width="1.10019" stroke-linecap="round" stroke-linejoin="round"/>
<path d="M105.207 57.617L95.0473 63.4515V51.7825L105.207 45.948V57.617ZM84.8879 57.617L95.0473 63.4515V51.7825L84.8879 45.948V57.617Z" fill="#9cede8"/>
<path d="M95.0473 63.4515L105.207 57.617V45.948L95.0473 51.7825M95.0473 63.4515V51.7825M95.0473 63.4515L84.8879 57.617V45.948L95.0473 51.7825" stroke="#481549" stroke-width="1.10019" stroke-linecap="round" stroke-linejoin="round"/>
<path d="M88.2744 53.7276L91.6609 55.6724V49.8379L88.2744 47.8931V53.7276Z" fill="white" stroke="#481549" stroke-width="1.10019" stroke-linecap="round" stroke-linejoin="round"/>
<path fill-rule="evenodd" clip-rule="evenodd" d="M105.207 45.948L95.0473 40.1135L84.8879 45.948V57.617L95.0473 63.4515L105.207 57.617V45.948Z" stroke="#481549" stroke-width="1.10019" stroke-linecap="round" stroke-linejoin="round"/>
<path d="M108.593 59.5621L98.4337 53.7276L108.593 47.8931L118.752 53.7276L108.593 59.5621Z" fill="#9cede8" stroke="#481549" stroke-width="1.10019" stroke-linecap="round" stroke-linejoin="round"/>
<path d="M105.207 57.617L101.82 55.6721L111.98 49.8376L115.366 51.7825L105.207 57.617Z" fill="white" stroke="#481549" stroke-width="1.10019" stroke-linecap="round" stroke-linejoin="round"/>
<path d="M118.752 65.3963L108.593 71.2308V59.5618L118.752 53.7273V65.3963Z" fill="#9cede8" stroke="#481549" stroke-width="1.10019" stroke-linecap="round" stroke-linejoin="round"/>
<path d="M98.4337 65.3963L108.593 71.2308V59.5618L98.4337 53.7273V65.3963Z" fill="#9cede8" stroke="#481549" stroke-width="1.10019" stroke-linecap="round" stroke-linejoin="round"/>
<path d="M101.82 61.5069L105.207 63.4517V57.6172L101.82 55.6724V61.5069Z" fill="white" stroke="#481549" stroke-width="1.10019" stroke-linecap="round" stroke-linejoin="round"/>
<path fill-rule="evenodd" clip-rule="evenodd" d="M118.752 53.7276L108.593 47.8931L98.4337 53.7276V65.3965L108.593 71.231L118.752 65.3965V53.7276Z" stroke="#481549" stroke-width="1.10019" stroke-linecap="round" stroke-linejoin="round"/>
<path d="M125.525 49.838L95.0473 32.3345L78.115 42.0586L108.593 59.5621L125.525 49.838Z" fill="white" stroke="#481549" stroke-width="1.10019" stroke-linecap="round" stroke-linejoin="round"/>
<path d="M95.0473 36.2242L84.8879 30.3897L95.0473 24.5552L105.207 30.3897L95.0473 36.2242Z" fill="#9cede8" stroke="#481549" stroke-width="1.10019" stroke-linecap="round" stroke-linejoin="round"/>
<path d="M91.6609 34.2791L88.2744 32.3342L98.4338 26.4998L101.82 28.4446L91.6609 34.2791Z" fill="white" stroke="#481549" stroke-width="1.10019" stroke-linecap="round" stroke-linejoin="round"/>
<path d="M105.207 42.0584L95.0473 47.8929V36.2239L105.207 30.3894V42.0584ZM84.8879 42.0584L95.0473 47.8929V36.2239L84.8879 30.3894V42.0584Z" fill="#9cede8"/>
<path d="M95.0473 47.8929L105.207 42.0584V30.3894L95.0473 36.2239M95.0473 47.8929V36.2239M95.0473 47.8929L84.8879 42.0584V30.3894L95.0473 36.2239" stroke="#481549" stroke-width="1.10019" stroke-linecap="round" stroke-linejoin="round"/>
<path d="M88.2744 38.169L91.6609 40.1138V34.2793L88.2744 32.3345V38.169Z" fill="white" stroke="#481549" stroke-width="1.10019" stroke-linecap="round" stroke-linejoin="round"/>
<path fill-rule="evenodd" clip-rule="evenodd" d="M105.207 30.3897L95.0473 24.5552L84.8879 30.3897V42.0587L95.0473 47.8932L105.207 42.0587V30.3897Z" stroke="#481549" stroke-width="1.10019" stroke-linecap="round" stroke-linejoin="round"/>
<path d="M108.593 44.0035L118.752 38.169L108.593 32.3345L98.4337 38.169L108.593 44.0035Z" fill="#9cede8" stroke="#481549" stroke-width="1.10019" stroke-linecap="round" stroke-linejoin="round"/>
<path d="M111.98 42.0586L115.366 40.1138L105.207 34.2793L101.82 36.2241L111.98 42.0586Z" fill="white" stroke="#481549" stroke-width="1.10019" stroke-linecap="round" stroke-linejoin="round"/>
<path d="M98.4337 49.8379L108.593 55.6724V44.0034L98.4337 38.1689V49.8379Z" fill="#9cede8" stroke="#481549" stroke-width="1.10019" stroke-linecap="round" stroke-linejoin="round"/>
<path d="M118.752 49.8379L108.593 55.6724V44.0034L118.752 38.1689V49.8379Z" fill="#9cede8" stroke="#481549" stroke-width="1.10019" stroke-linecap="round" stroke-linejoin="round"/>
<path d="M115.366 45.948L111.98 47.8929V42.0584L115.366 40.1135V45.948Z" fill="white" stroke="#481549" stroke-width="1.10019" stroke-linecap="round" stroke-linejoin="round"/>
<path fill-rule="evenodd" clip-rule="evenodd" d="M98.4337 38.169L108.593 32.3345L118.752 38.169V49.838L108.593 55.6725L98.4337 49.838V38.169Z" stroke="#481549" stroke-width="1.10019" stroke-linecap="round" stroke-linejoin="round"/>
<path d="M125.525 34.2791L95.0473 16.7756L78.115 26.4998L108.593 44.0033L125.525 34.2791Z" fill="white" stroke="#481549" stroke-width="1.10019" stroke-linecap="round" stroke-linejoin="round"/>
<path d="M78.115 61.507V10.9414M125.525 69.2863V18.7207" stroke="#481549" stroke-width="1.10019" stroke-linecap="round" stroke-linejoin="round"/>
<path d="M95.0473 20.6653L105.207 14.8308L95.0473 8.99634L84.8879 14.8308L95.0473 20.6653Z" fill="#9cede8" stroke="#481549" stroke-width="1.10019" stroke-linecap="round" stroke-linejoin="round"/>
<path d="M98.4338 18.7207L101.82 16.7759L91.6609 10.9414L88.2744 12.8862L98.4338 18.7207Z" fill="white" stroke="#481549" stroke-width="1.10019" stroke-linecap="round" stroke-linejoin="round"/>
<path d="M84.8879 26.5L95.0473 32.3345V20.6655L84.8879 14.8311V26.5ZM105.207 26.5L95.0473 32.3345V20.6655L105.207 14.8311V26.5Z" fill="#9cede8"/>
<path d="M95.0473 32.3345L84.8879 26.5V14.8311L95.0473 20.6655M95.0473 32.3345V20.6655M95.0473 32.3345L105.207 26.5V14.8311L95.0473 20.6655" stroke="#481549" stroke-width="1.10019" stroke-linecap="round" stroke-linejoin="round"/>
<path d="M101.82 22.6101L98.4337 24.555V18.7205L101.82 16.7756V22.6101Z" fill="white" stroke="#481549" stroke-width="1.10019" stroke-linecap="round" stroke-linejoin="round"/>
<path fill-rule="evenodd" clip-rule="evenodd" d="M84.8879 14.8308L95.0473 8.99634L105.207 14.8308V26.4998L95.0473 32.3343L84.8879 26.4998V14.8308Z" stroke="#481549" stroke-width="1.10019" stroke-linecap="round" stroke-linejoin="round"/>
<path d="M108.593 28.4446L98.4337 22.6101L108.593 16.7756L118.752 22.6101L108.593 28.4446Z" fill="#9cede8" stroke="#481549" stroke-width="1.10019" stroke-linecap="round" stroke-linejoin="round"/>
<path d="M105.207 26.5L101.82 24.5552L111.98 18.7207L115.366 20.6655L105.207 26.5Z" fill="white" stroke="#481549" stroke-width="1.10019" stroke-linecap="round" stroke-linejoin="round"/>
<path d="M118.752 34.2791L108.593 40.1136V28.4446L118.752 22.6101V34.2791Z" fill="#9cede8" stroke="#481549" stroke-width="1.10019" stroke-linecap="round" stroke-linejoin="round"/>
<path d="M98.4337 34.2791L108.593 40.1136V28.4446L98.4337 22.6101V34.2791Z" fill="#9cede8" stroke="#481549" stroke-width="1.10019" stroke-linecap="round" stroke-linejoin="round"/>
<path d="M101.82 30.3897L105.207 32.3345V26.5L101.82 24.5552V30.3897Z" fill="white" stroke="#481549" stroke-width="1.10019" stroke-linecap="round" stroke-linejoin="round"/>
<path fill-rule="evenodd" clip-rule="evenodd" d="M118.752 22.6101L108.593 16.7756L98.4337 22.6101V34.2791L108.593 40.1136L118.752 34.2791V22.6101Z" stroke="#481549" stroke-width="1.10019" stroke-linecap="round" stroke-linejoin="round"/>
<path d="M125.525 18.7208L95.0473 1.21729L78.115 10.9414L108.593 28.4449L125.525 18.7208Z" fill="white" stroke="#481549" stroke-width="1.10019" stroke-linecap="round" stroke-linejoin="round"/>
<path d="M108.593 12.8863L98.4337 7.05178L108.593 1.21729L118.752 7.05178L108.593 12.8863Z" fill="#9cede8" stroke="#481549" stroke-width="1.10019" stroke-linecap="round" stroke-linejoin="round"/>
<path d="M105.207 10.9412L101.82 8.99636L111.98 3.16187L115.366 5.1067L105.207 10.9412Z" fill="white" stroke="#481549" stroke-width="1.10019" stroke-linecap="round" stroke-linejoin="round"/>
<path d="M118.752 18.7207L108.593 24.5552V12.8863L118.752 7.05176V18.7207Z" fill="#9cede8" stroke="#481549" stroke-width="1.10019" stroke-linecap="round" stroke-linejoin="round"/>
<path d="M98.4337 18.7207L108.593 24.5552V12.8863L98.4337 7.05176V18.7207Z" fill="#9cede8" stroke="#481549" stroke-width="1.10019" stroke-linecap="round" stroke-linejoin="round"/>
<path d="M101.82 14.8308L105.207 16.7757V10.9412L101.82 8.99634V14.8308Z" fill="white" stroke="#481549" stroke-width="1.10019" stroke-linecap="round" stroke-linejoin="round"/>
<path d="M108.593 79.0105V28.4449M145.86 77.0735V57.6252M118.752 7.05178L108.593 1.21729L98.4337 7.05178V18.7208L108.593 24.5553L118.752 18.7208V7.05178Z" stroke="#481549" stroke-width="1.10019" stroke-linecap="round" stroke-linejoin="round"/>
<path d="M176.342 90.6871L145.86 73.1836L128.927 82.9078L159.406 100.411L176.342 90.6871Z" fill="white" stroke="#481549" stroke-width="1.10019" stroke-linecap="round" stroke-linejoin="round"/>
<path d="M159.406 84.8526L169.565 79.0181L145.86 65.4043L135.7 71.2388L159.406 84.8526Z" fill="#9cede8" stroke="#481549" stroke-width="1.10019" stroke-linecap="round" stroke-linejoin="round"/>
<path d="M162.792 82.908L166.179 80.9632L142.473 67.3494L139.087 69.2942L162.792 82.908Z" fill="white" stroke="#481549" stroke-width="1.10019" stroke-linecap="round" stroke-linejoin="round"/>
<path d="M135.7 82.908L159.406 96.5218V84.8528L135.7 71.239V82.908Z" fill="#9cede8" stroke="#481549" stroke-width="1.10019" stroke-linecap="round" stroke-linejoin="round"/>
<path d="M169.565 90.6871L159.406 96.5215V84.8526L169.565 79.0181V90.6871Z" fill="#9cede8" stroke="#481549" stroke-width="1.10019" stroke-linecap="round" stroke-linejoin="round"/>
<path d="M166.179 86.7976L162.792 88.7425V82.908L166.179 80.9631V86.7976Z" fill="white" stroke="#481549" stroke-width="1.10019" stroke-linecap="round" stroke-linejoin="round"/>
<path fill-rule="evenodd" clip-rule="evenodd" d="M145.86 65.4043L135.7 71.2388V82.9078L159.406 96.5216L169.565 90.6871V79.0181L145.86 65.4043Z" stroke="#481549" stroke-width="1.10019" stroke-linecap="round" stroke-linejoin="round"/>
<path d="M176.342 75.1282L145.86 57.6248L128.927 67.3489L159.406 84.8524L176.342 75.1282Z" fill="white" stroke="#481549" stroke-width="1.10019" stroke-linecap="round" stroke-linejoin="round"/>
<path d="M128.927 86.7975V67.3492V51.7906M176.338 94.5769V75.1285M159.406 104.301V84.8527M145.86 57.6251V42.0664" stroke="#481549" stroke-width="1.10019" stroke-linecap="round" stroke-linejoin="round"/>
<path d="M145.844 61.5066L135.685 55.6721L145.844 49.8376L156.004 55.6721L145.844 61.5066Z" fill="#9cede8" stroke="#481549" stroke-width="1.10019" stroke-linecap="round" stroke-linejoin="round"/>
<path d="M142.458 59.562L139.071 57.6172L149.231 51.7827L152.617 53.7275L142.458 59.562Z" fill="white" stroke="#481549" stroke-width="1.10019" stroke-linecap="round" stroke-linejoin="round"/>
<path d="M156.004 67.3414L145.844 73.1758V61.5069L156.004 55.6724V67.3414ZM135.685 67.3414L145.844 73.1758V61.5069L135.685 55.6724V67.3414Z" fill="#9cede8"/>
<path d="M145.844 73.1758L156.004 67.3414V55.6724L145.844 61.5069M145.844 73.1758V61.5069M145.844 73.1758L135.685 67.3414V55.6724L145.844 61.5069" stroke="#481549" stroke-width="1.10019" stroke-linecap="round" stroke-linejoin="round"/>
<path d="M139.071 63.4517L142.458 65.3965V59.562L139.071 57.6172V63.4517Z" fill="white" stroke="#481549" stroke-width="1.10019" stroke-linecap="round" stroke-linejoin="round"/>
<path fill-rule="evenodd" clip-rule="evenodd" d="M156.004 55.6721L145.844 49.8376L135.685 55.6721V67.3411L145.844 73.1756L156.004 67.3411V55.6721Z" stroke="#481549" stroke-width="1.10019" stroke-linecap="round" stroke-linejoin="round"/>
<path d="M159.406 69.2862L149.246 63.4517L159.406 57.6172L169.565 63.4517L159.406 69.2862Z" fill="#9cede8" stroke="#481549" stroke-width="1.10019" stroke-linecap="round" stroke-linejoin="round"/>
<path d="M156.019 67.3411L152.633 65.3963L162.792 59.5618L166.179 61.5066L156.019 67.3411Z" fill="white" stroke="#481549" stroke-width="1.10019" stroke-linecap="round" stroke-linejoin="round"/>
<path d="M169.565 75.1209L159.406 80.9554V69.2864L169.565 63.4519V75.1209Z" fill="#9cede8" stroke="#481549" stroke-width="1.10019" stroke-linecap="round" stroke-linejoin="round"/>
<path d="M149.246 75.1209L159.406 80.9554V69.2864L149.246 63.4519V75.1209Z" fill="#9cede8" stroke="#481549" stroke-width="1.10019" stroke-linecap="round" stroke-linejoin="round"/>
<path d="M152.633 71.2315L156.019 73.1763V67.3418L152.633 65.397V71.2315Z" fill="white" stroke="#481549" stroke-width="1.10019" stroke-linecap="round" stroke-linejoin="round"/>
<path fill-rule="evenodd" clip-rule="evenodd" d="M169.565 63.4517L159.406 57.6172L149.246 63.4517V75.1207L159.406 80.9552L169.565 75.1207V63.4517Z" stroke="#481549" stroke-width="1.10019" stroke-linecap="round" stroke-linejoin="round"/>
<path d="M176.342 59.5699L145.86 42.0664L128.927 51.7906L159.406 69.294L176.342 59.5699Z" fill="white" stroke="#481549" stroke-width="1.10019" stroke-linecap="round" stroke-linejoin="round"/>
<path d="M176.338 75.1285V59.5698M159.406 84.8526V69.2862" stroke="#481549" stroke-width="1.10019" stroke-linecap="round" stroke-linejoin="round"/>
<path d="M145.86 45.9559L156.019 40.1214L145.86 34.2869L135.7 40.1214L145.86 45.9559Z" fill="#9cede8" stroke="#481549" stroke-width="1.10019" stroke-linecap="round" stroke-linejoin="round"/>
<path d="M149.246 44.0113L152.633 42.0664L142.473 36.2319L139.087 38.1768L149.246 44.0113Z" fill="white" stroke="#481549" stroke-width="1.10019" stroke-linecap="round" stroke-linejoin="round"/>
<path d="M135.7 51.7906L145.86 57.6251V45.9561L135.7 40.1216V51.7906Z" fill="#9cede8" stroke="#481549" stroke-width="1.10019" stroke-linecap="round" stroke-linejoin="round"/>
<path d="M156.019 51.7906L145.86 57.6251V45.9561L156.019 40.1216V51.7906Z" fill="#9cede8" stroke="#481549" stroke-width="1.10019" stroke-linecap="round" stroke-linejoin="round"/>
<path d="M152.633 47.9009L149.246 49.8457V44.0112L152.633 42.0664V47.9009Z" fill="white" stroke="#481549" stroke-width="1.10019" stroke-linecap="round" stroke-linejoin="round"/>
<path fill-rule="evenodd" clip-rule="evenodd" d="M135.7 40.1214L145.86 34.2869L156.019 40.1214V51.7904L145.86 57.6248L135.7 51.7904V40.1214Z" stroke="#481549" stroke-width="1.10019" stroke-linecap="round" stroke-linejoin="round"/>
<path d="M159.406 53.7354L149.246 47.9009L159.406 42.0664L169.565 47.9009L159.406 53.7354Z" fill="#9cede8" stroke="#481549" stroke-width="1.10019" stroke-linecap="round" stroke-linejoin="round"/>
<path d="M156.019 51.7903L152.633 49.8455L162.792 44.011L166.179 45.9558L156.019 51.7903Z" fill="white" stroke="#481549" stroke-width="1.10019" stroke-linecap="round" stroke-linejoin="round"/>
<path d="M169.565 59.5696L159.406 65.4041V53.7351L169.565 47.9006V59.5696Z" fill="#9cede8" stroke="#481549" stroke-width="1.10019" stroke-linecap="round" stroke-linejoin="round"/>
<path d="M149.246 59.5696L159.406 65.4041V53.7351L149.246 47.9006V59.5696Z" fill="#9cede8" stroke="#481549" stroke-width="1.10019" stroke-linecap="round" stroke-linejoin="round"/>
<path d="M152.633 55.6802L156.019 57.625V51.7905L152.633 49.8457V55.6802Z" fill="white" stroke="#481549" stroke-width="1.10019" stroke-linecap="round" stroke-linejoin="round"/>
<path fill-rule="evenodd" clip-rule="evenodd" d="M169.565 47.9009L159.406 42.0664L149.246 47.9009V59.5699L159.406 65.4044L169.565 59.5699V47.9009Z" stroke="#481549" stroke-width="1.10019" stroke-linecap="round" stroke-linejoin="round"/>
<path d="M54.4097 80.3874C55.7315 80.3874 56.8029 79.7709 56.8029 79.0105C56.8029 78.25 55.7315 77.6335 54.4097 77.6335C53.088 77.6335 52.0165 78.25 52.0165 79.0105C52.0165 79.7709 53.088 80.3874 54.4097 80.3874Z" fill="#481549" stroke="#481549" stroke-width="1.10019" stroke-linecap="round" stroke-linejoin="round"/>
<path d="M71.3421 70.6631C72.6638 70.6631 73.7353 70.0466 73.7353 69.2861C73.7353 68.5257 72.6638 67.9092 71.3421 67.9092C70.0203 67.9092 68.9489 68.5257 68.9489 69.2861C68.9489 70.0466 70.0203 70.6631 71.3421 70.6631Z" fill="#481549" stroke="#481549" stroke-width="1.10019" stroke-linecap="round" stroke-linejoin="round"/>
<path d="M54.4097 69.2859L71.342 59.5618" stroke="#481549" stroke-width="1.10019" stroke-linecap="round" stroke-linejoin="round"/>
<path d="M54.4097 59.5618V78.2321" stroke="#481549" stroke-width="3.30058" stroke-linecap="round" stroke-linejoin="round"/>
<path d="M54.4097 59.5618V78.2321" stroke="#B2B2B2" stroke-width="1.10019" stroke-linecap="round" stroke-linejoin="round"/>
<path d="M71.342 49.8376V68.508" stroke="#481549" stroke-width="3.30058" stroke-linecap="round" stroke-linejoin="round"/>
<path d="M71.342 49.8376V68.508" stroke="#B2B2B2" stroke-width="1.10019" stroke-linecap="round" stroke-linejoin="round"/>
<path d="M91.6685 101.784C92.9903 101.784 94.0617 101.168 94.0617 100.407C94.0617 99.6467 92.9903 99.0303 91.6685 99.0303C90.3468 99.0303 89.2753 99.6467 89.2753 100.407C89.2753 101.168 90.3468 101.784 91.6685 101.784Z" fill="#481549" stroke="#481549" stroke-width="1.10019" stroke-linecap="round" stroke-linejoin="round"/>
<path d="M108.601 92.06C109.923 92.06 110.994 91.4436 110.994 90.6831C110.994 89.9226 109.923 89.3062 108.601 89.3062C107.279 89.3062 106.208 89.9226 106.208 90.6831C106.208 91.4436 107.279 92.06 108.601 92.06Z" fill="#481549" stroke="#481549" stroke-width="1.10019" stroke-linecap="round" stroke-linejoin="round"/>
<path d="M91.6686 90.6834L108.601 80.9592" stroke="#481549" stroke-width="1.10019" stroke-linecap="round" stroke-linejoin="round"/>
<path d="M91.6686 80.9592V99.6296" stroke="#481549" stroke-width="3.30058" stroke-linecap="round" stroke-linejoin="round"/>
<path d="M91.6686 80.9592V99.6296" stroke="#B2B2B2" stroke-width="1.10019" stroke-linecap="round" stroke-linejoin="round"/>
<path d="M108.601 71.2351V89.9055" stroke="#481549" stroke-width="3.30058" stroke-linecap="round" stroke-linejoin="round"/>
<path d="M108.601 71.2351V89.9055" stroke="#B2B2B2" stroke-width="1.10019" stroke-linecap="round" stroke-linejoin="round"/>
<path d="M128.928 123.182C130.249 123.182 131.321 122.565 131.321 121.805C131.321 121.044 130.249 120.428 128.928 120.428C127.606 120.428 126.534 121.044 126.534 121.805C126.534 122.565 127.606 123.182 128.928 123.182Z" fill="#481549" stroke="#481549" stroke-width="1.10019" stroke-linecap="round" stroke-linejoin="round"/>
<path d="M145.86 113.457C147.181 113.457 148.253 112.841 148.253 112.081C148.253 111.32 147.181 110.704 145.86 110.704C144.538 110.704 143.467 111.32 143.467 112.081C143.467 112.841 144.538 113.457 145.86 113.457Z" fill="#481549" stroke="#481549" stroke-width="1.10019" stroke-linecap="round" stroke-linejoin="round"/>
<path d="M128.927 112.08L145.86 102.356" stroke="#481549" stroke-width="1.10019" stroke-linecap="round" stroke-linejoin="round"/>
<path d="M128.927 102.356V121.026" stroke="#481549" stroke-width="3.30058" stroke-linecap="round" stroke-linejoin="round"/>
<path d="M128.927 102.356V121.026" stroke="#B2B2B2" stroke-width="1.10019" stroke-linecap="round" stroke-linejoin="round"/>
<path d="M145.86 92.6318V111.302" stroke="#481549" stroke-width="3.30058" stroke-linecap="round" stroke-linejoin="round"/>
<path d="M145.86 92.6318V111.302" stroke="#B2B2B2" stroke-width="1.10019" stroke-linecap="round" stroke-linejoin="round"/>
<path d="M156.011 146.516C157.333 146.516 158.405 145.899 158.405 145.139C158.405 144.378 157.333 143.762 156.011 143.762C154.69 143.762 153.618 144.378 153.618 145.139C153.618 145.899 154.69 146.516 156.011 146.516Z" fill="#481549" stroke="#481549" stroke-width="1.10019" stroke-linecap="round" stroke-linejoin="round"/>
<path d="M172.944 136.791C174.265 136.791 175.337 136.175 175.337 135.414C175.337 134.654 174.265 134.037 172.944 134.037C171.622 134.037 170.55 134.654 170.55 135.414C170.55 136.175 171.622 136.791 172.944 136.791Z" fill="#481549" stroke="#481549" stroke-width="1.10019" stroke-linecap="round" stroke-linejoin="round"/>
<path d="M156.011 125.363V144.36" stroke="#481549" stroke-width="3.30058" stroke-linecap="round" stroke-linejoin="round"/>
<path d="M156.011 125.363V144.36" stroke="#B2B2B2" stroke-width="1.10019" stroke-linecap="round" stroke-linejoin="round"/>
<path d="M172.944 115.639V134.636" stroke="#481549" stroke-width="3.30058" stroke-linecap="round" stroke-linejoin="round"/>
<path d="M172.944 115.639V134.636" stroke="#B2B2B2" stroke-width="1.10019" stroke-linecap="round" stroke-linejoin="round"/>
<path d="M169.549 145.135L148.566 118.02C144.573 112.862 139.963 108.685 135.27 105.993L40.86 51.7828L57.7963 42.0586L152.191 96.2688C156.883 98.9721 161.506 103.138 165.486 108.296L186.474 135.41L169.549 145.135Z" fill="#E5E5E5" stroke="#481549" stroke-width="1.10019" stroke-linecap="round" stroke-linejoin="round"/>
<path d="M167.293 106.044C162.761 100.182 157.536 95.4637 152.191 92.3947L57.7962 38.1689V42.0586L152.191 96.2688C156.883 98.9721 161.506 103.138 165.486 108.296L186.474 135.411L188.269 133.143L167.293 106.044Z" fill="white" stroke="#481549" stroke-width="1.10019" stroke-linecap="round" stroke-linejoin="round"/>
<path d="M61.1827 44.0034L44.2465 53.7276" stroke="#B2B2B2" stroke-width="0.733462" stroke-linecap="round" stroke-linejoin="round"/>
<path d="M46.7883 52.2688L58.6409 45.4619" stroke="#481549" stroke-width="1.46692" stroke-linecap="round" stroke-linejoin="round"/>
<path d="M64.569 45.948L47.6367 55.6722" stroke="#B2B2B2" stroke-width="0.733462" stroke-linecap="round" stroke-linejoin="round"/>
<path d="M50.1747 54.2139L62.0273 47.407" stroke="#481549" stroke-width="1.46692" stroke-linecap="round" stroke-linejoin="round"/>
<path d="M67.9556 47.8931L51.0233 57.6172" stroke="#B2B2B2" stroke-width="0.733462" stroke-linecap="round" stroke-linejoin="round"/>
<path d="M53.5612 56.1585L65.4138 49.3516" stroke="#481549" stroke-width="1.46692" stroke-linecap="round" stroke-linejoin="round"/>
<path d="M71.342 49.8376L54.4097 59.5618" stroke="#B2B2B2" stroke-width="0.733462" stroke-linecap="round" stroke-linejoin="round"/>
<path d="M56.9477 58.1035L68.8003 51.2966" stroke="#481549" stroke-width="1.46692" stroke-linecap="round" stroke-linejoin="round"/>
<path d="M74.7285 51.7827L57.7962 61.5069" stroke="#B2B2B2" stroke-width="0.733462" stroke-linecap="round" stroke-linejoin="round"/>
<path d="M60.3342 60.0481L72.1868 53.2412" stroke="#481549" stroke-width="1.46692" stroke-linecap="round" stroke-linejoin="round"/>
<path d="M78.1149 53.7273L61.1826 63.4515" stroke="#B2B2B2" stroke-width="0.733462" stroke-linecap="round" stroke-linejoin="round"/>
<path d="M63.7206 61.9929L75.5732 55.186" stroke="#481549" stroke-width="1.46692" stroke-linecap="round" stroke-linejoin="round"/>
<path d="M81.5015 55.6724L64.5692 65.3965" stroke="#B2B2B2" stroke-width="0.733462" stroke-linecap="round" stroke-linejoin="round"/>
<path d="M67.1069 63.938L78.9595 57.1311" stroke="#481549" stroke-width="1.46692" stroke-linecap="round" stroke-linejoin="round"/>
<path d="M84.8879 57.6172L67.9556 67.3413" stroke="#B2B2B2" stroke-width="0.733462" stroke-linecap="round" stroke-linejoin="round"/>
<path d="M70.4935 65.8826L82.3461 59.0757" stroke="#481549" stroke-width="1.46692" stroke-linecap="round" stroke-linejoin="round"/>
<path d="M88.2743 59.5618L71.342 69.2859" stroke="#B2B2B2" stroke-width="0.733462" stroke-linecap="round" stroke-linejoin="round"/>
<path d="M73.88 67.8277L85.7326 61.0208" stroke="#481549" stroke-width="1.46692" stroke-linecap="round" stroke-linejoin="round"/>
<path d="M91.6607 61.5068L74.7284 71.231" stroke="#B2B2B2" stroke-width="0.733462" stroke-linecap="round" stroke-linejoin="round"/>
<path d="M77.2664 69.7722L89.119 62.9653" stroke="#481549" stroke-width="1.46692" stroke-linecap="round" stroke-linejoin="round"/>
<path d="M95.0473 63.4519L78.115 73.1761" stroke="#B2B2B2" stroke-width="0.733462" stroke-linecap="round" stroke-linejoin="round"/>
<path d="M80.6528 71.7173L92.5054 64.9104" stroke="#481549" stroke-width="1.46692" stroke-linecap="round" stroke-linejoin="round"/>
<path d="M98.4337 65.397L81.5014 75.1211" stroke="#B2B2B2" stroke-width="0.733462" stroke-linecap="round" stroke-linejoin="round"/>
<path d="M84.0394 73.6619L95.892 66.855" stroke="#481549" stroke-width="1.46692" stroke-linecap="round" stroke-linejoin="round"/>
<path d="M101.82 67.3416L84.8879 77.0657" stroke="#B2B2B2" stroke-width="0.733462" stroke-linecap="round" stroke-linejoin="round"/>
<path d="M87.4258 75.6067L99.2784 68.7998" stroke="#481549" stroke-width="1.46692" stroke-linecap="round" stroke-linejoin="round"/>
<path d="M105.207 69.2864L88.2744 79.0105" stroke="#B2B2B2" stroke-width="0.733462" stroke-linecap="round" stroke-linejoin="round"/>
<path d="M90.8123 77.5518L102.665 70.7449" stroke="#481549" stroke-width="1.46692" stroke-linecap="round" stroke-linejoin="round"/>
<path d="M108.593 71.231L91.6608 80.9551" stroke="#B2B2B2" stroke-width="0.733462" stroke-linecap="round" stroke-linejoin="round"/>
<path d="M94.1986 79.4964L106.051 72.6895" stroke="#481549" stroke-width="1.46692" stroke-linecap="round" stroke-linejoin="round"/>
<path d="M111.98 73.176L95.0472 82.9002" stroke="#B2B2B2" stroke-width="0.733462" stroke-linecap="round" stroke-linejoin="round"/>
<path d="M97.5852 81.4414L109.438 74.6345" stroke="#481549" stroke-width="1.46692" stroke-linecap="round" stroke-linejoin="round"/>
<path d="M115.366 75.1206L98.4337 84.8448" stroke="#B2B2B2" stroke-width="0.733462" stroke-linecap="round" stroke-linejoin="round"/>
<path d="M100.972 83.386L112.824 76.5791" stroke="#481549" stroke-width="1.46692" stroke-linecap="round" stroke-linejoin="round"/>
<path d="M118.753 77.0657L101.82 86.7898" stroke="#B2B2B2" stroke-width="0.733462" stroke-linecap="round" stroke-linejoin="round"/>
<path d="M104.358 85.3311L116.211 78.5242" stroke="#481549" stroke-width="1.46692" stroke-linecap="round" stroke-linejoin="round"/>
<path d="M122.139 79.0105L105.207 88.7347" stroke="#B2B2B2" stroke-width="0.733462" stroke-linecap="round" stroke-linejoin="round"/>
<path d="M107.744 87.2759L119.601 80.469" stroke="#481549" stroke-width="1.46692" stroke-linecap="round" stroke-linejoin="round"/>
<path d="M125.525 80.9553L108.593 90.6795" stroke="#B2B2B2" stroke-width="0.733462" stroke-linecap="round" stroke-linejoin="round"/>
<path d="M111.131 89.221L122.988 82.4141" stroke="#481549" stroke-width="1.46692" stroke-linecap="round" stroke-linejoin="round"/>
<path d="M128.912 82.9001L111.98 92.6243" stroke="#B2B2B2" stroke-width="0.733462" stroke-linecap="round" stroke-linejoin="round"/>
<path d="M114.521 91.1656L126.374 84.3586" stroke="#481549" stroke-width="1.46692" stroke-linecap="round" stroke-linejoin="round"/>
<path d="M132.298 84.8447L115.366 94.5689" stroke="#B2B2B2" stroke-width="0.733462" stroke-linecap="round" stroke-linejoin="round"/>
<path d="M117.908 93.1106L129.761 86.3037" stroke="#481549" stroke-width="1.46692" stroke-linecap="round" stroke-linejoin="round"/>
<path d="M135.685 86.7898L118.752 96.514" stroke="#B2B2B2" stroke-width="0.733462" stroke-linecap="round" stroke-linejoin="round"/>
<path d="M121.294 95.0552L133.147 88.2483" stroke="#481549" stroke-width="1.46692" stroke-linecap="round" stroke-linejoin="round"/>
<path d="M139.071 88.7344L122.139 98.4585" stroke="#B2B2B2" stroke-width="0.733462" stroke-linecap="round" stroke-linejoin="round"/>
<path d="M124.681 97L136.533 90.1931" stroke="#481549" stroke-width="1.46692" stroke-linecap="round" stroke-linejoin="round"/>
<path d="M142.458 90.6794L125.525 100.404" stroke="#B2B2B2" stroke-width="0.733462" stroke-linecap="round" stroke-linejoin="round"/>
<path d="M128.067 98.9451L139.92 92.1382" stroke="#481549" stroke-width="1.46692" stroke-linecap="round" stroke-linejoin="round"/>
<path d="M184.049 132.268L167.117 141.992" stroke="#B2B2B2" stroke-width="0.733462" stroke-linecap="round" stroke-linejoin="round"/>
<path d="M169.659 140.533L181.511 133.726" stroke="#481549" stroke-width="1.46692" stroke-linecap="round" stroke-linejoin="round"/>
<path d="M181.617 129.125L164.685 138.849" stroke="#B2B2B2" stroke-width="0.733462" stroke-linecap="round" stroke-linejoin="round"/>
<path d="M167.227 137.39L179.079 130.583" stroke="#481549" stroke-width="1.46692" stroke-linecap="round" stroke-linejoin="round"/>
<path d="M179.185 125.982L162.253 135.706" stroke="#B2B2B2" stroke-width="0.733462" stroke-linecap="round" stroke-linejoin="round"/>
<path d="M164.794 134.247L176.647 127.44" stroke="#481549" stroke-width="1.46692" stroke-linecap="round" stroke-linejoin="round"/>
<path d="M176.752 122.835L159.82 132.559" stroke="#B2B2B2" stroke-width="0.733462" stroke-linecap="round" stroke-linejoin="round"/>
<path d="M162.362 131.101L174.215 124.294" stroke="#481549" stroke-width="1.46692" stroke-linecap="round" stroke-linejoin="round"/>
<path d="M174.32 119.692L157.388 129.417" stroke="#B2B2B2" stroke-width="0.733462" stroke-linecap="round" stroke-linejoin="round"/>
<path d="M159.926 127.958L171.778 121.151" stroke="#481549" stroke-width="1.46692" stroke-linecap="round" stroke-linejoin="round"/>
<path d="M171.888 116.55L154.956 126.274" stroke="#B2B2B2" stroke-width="0.733462" stroke-linecap="round" stroke-linejoin="round"/>
<path d="M157.493 124.815L169.346 118.008" stroke="#481549" stroke-width="1.46692" stroke-linecap="round" stroke-linejoin="round"/>
<path d="M169.455 113.407L152.523 123.131" stroke="#B2B2B2" stroke-width="0.733462" stroke-linecap="round" stroke-linejoin="round"/>
<path d="M155.061 121.672L166.914 114.865" stroke="#481549" stroke-width="1.46692" stroke-linecap="round" stroke-linejoin="round"/>
<path d="M167.023 110.264L150.091 119.988" stroke="#B2B2B2" stroke-width="0.733462" stroke-linecap="round" stroke-linejoin="round"/>
<path d="M152.629 118.53L164.481 111.723" stroke="#481549" stroke-width="1.46692" stroke-linecap="round" stroke-linejoin="round"/>
<path d="M164.501 107.039L147.569 116.763" stroke="#B2B2B2" stroke-width="0.733462" stroke-linecap="round" stroke-linejoin="round"/>
<path d="M150.107 115.305L161.959 108.498" stroke="#481549" stroke-width="1.46692" stroke-linecap="round" stroke-linejoin="round"/>
<path d="M161.717 103.896L144.785 113.621" stroke="#B2B2B2" stroke-width="0.733462" stroke-linecap="round" stroke-linejoin="round"/>
<path d="M147.322 112.162L159.179 105.355" stroke="#481549" stroke-width="1.46692" stroke-linecap="round" stroke-linejoin="round"/>
<path d="M158.8 101.08L141.867 110.804" stroke="#B2B2B2" stroke-width="0.733462" stroke-linecap="round" stroke-linejoin="round"/>
<path d="M144.405 109.346L156.262 102.539" stroke="#481549" stroke-width="1.46692" stroke-linecap="round" stroke-linejoin="round"/>
<path d="M155.781 98.626L138.848 108.35" stroke="#B2B2B2" stroke-width="0.733462" stroke-linecap="round" stroke-linejoin="round"/>
<path d="M141.39 106.892L153.243 100.085" stroke="#481549" stroke-width="1.46692" stroke-linecap="round" stroke-linejoin="round"/>
<path d="M152.695 96.5642L135.763 106.288" stroke="#B2B2B2" stroke-width="0.733462" stroke-linecap="round" stroke-linejoin="round"/>
<path d="M138.305 104.83L150.157 98.0232" stroke="#481549" stroke-width="1.46692" stroke-linecap="round" stroke-linejoin="round"/>
<path d="M149.297 94.6079L132.365 104.332" stroke="#B2B2B2" stroke-width="0.733462" stroke-linecap="round" stroke-linejoin="round"/>
<path d="M134.907 102.874L146.759 96.0667" stroke="#481549" stroke-width="1.46692" stroke-linecap="round" stroke-linejoin="round"/>
<path d="M145.844 92.6243L128.912 102.348" stroke="#B2B2B2" stroke-width="0.733462" stroke-linecap="round" stroke-linejoin="round"/>
<path d="M131.454 100.89L143.306 94.0828" stroke="#481549" stroke-width="1.46692" stroke-linecap="round" stroke-linejoin="round"/>
<path d="M125.51 84.8526L135.669 79.0181L125.51 73.1836L115.35 79.0181L125.51 84.8526Z" fill="#9cede8" stroke="#481549" stroke-width="1.10019" stroke-linecap="round" stroke-linejoin="round"/>
<path d="M128.896 82.908L132.283 80.9632L122.123 75.1287L118.737 77.0735L128.896 82.908Z" fill="white" stroke="#481549" stroke-width="1.10019" stroke-linecap="round" stroke-linejoin="round"/>
<path d="M115.35 90.6871L125.51 96.5215V84.8526L115.35 79.0181V90.6871ZM135.669 90.6871L125.51 96.5215V84.8526L135.669 79.0181V90.6871Z" fill="#9cede8"/>
<path d="M125.51 96.5215L115.35 90.6871V79.0181L125.51 84.8526M125.51 96.5215V84.8526M125.51 96.5215L135.669 90.6871V79.0181L125.51 84.8526" stroke="#481549" stroke-width="1.10019" stroke-linecap="round" stroke-linejoin="round"/>
<path d="M132.283 86.7976L128.896 88.7425V82.908L132.283 80.9631V86.7976Z" fill="white" stroke="#481549" stroke-width="1.10019" stroke-linecap="round" stroke-linejoin="round"/>
<path fill-rule="evenodd" clip-rule="evenodd" d="M115.35 79.0181L125.51 73.1836L135.669 79.0181V90.6871L125.51 96.5216L115.35 90.6871V79.0181Z" stroke="#481549" stroke-width="1.10019" stroke-linecap="round" stroke-linejoin="round"/>
<path d="M150.361 115.768C145.825 109.906 140.585 105.188 135.259 102.119L40.86 47.8931V51.7827L135.259 105.993C139.951 108.696 144.573 112.862 148.554 118.02L169.549 145.135L171.344 142.867L150.361 115.768Z" fill="white" stroke="#481549" stroke-width="1.10019" stroke-linecap="round" stroke-linejoin="round"/>
<path d="M40.86 86.7899V67.3416" stroke="#481549" stroke-width="1.10019" stroke-linecap="round" stroke-linejoin="round"/>
<path d="M71.342 100.404L40.8638 82.9001L23.9276 92.6243L54.4097 110.128L71.342 100.404Z" fill="white" stroke="#481549" stroke-width="1.10019" stroke-linecap="round" stroke-linejoin="round"/>
<path d="M54.4098 94.5689L64.5692 88.7344L40.864 75.1206L30.7007 80.9551L54.4098 94.5689Z" fill="#9cede8" stroke="#481549" stroke-width="1.10019" stroke-linecap="round" stroke-linejoin="round"/>
<path d="M57.7962 92.6243L61.1826 90.6795L37.4774 77.0657L34.087 79.0105L57.7962 92.6243Z" fill="white" stroke="#481549" stroke-width="1.10019" stroke-linecap="round" stroke-linejoin="round"/>
<path d="M30.7007 92.6243L54.4098 106.238V94.5691L30.7007 80.9553V92.6243ZM64.5692 100.404L54.4098 106.238V94.5691L64.5692 88.7346V100.404Z" fill="#9cede8"/>
<path d="M54.4098 106.238L30.7007 92.6243V80.9553L54.4098 94.5691M54.4098 106.238V94.5691M54.4098 106.238L64.5692 100.404V88.7346L54.4098 94.5691" stroke="#481549" stroke-width="1.10019" stroke-linecap="round" stroke-linejoin="round"/>
<path d="M61.1827 96.5139L57.7962 98.4588V92.6243L61.1827 90.6794V96.5139Z" fill="white" stroke="#481549" stroke-width="1.10019" stroke-linecap="round" stroke-linejoin="round"/>
<path fill-rule="evenodd" clip-rule="evenodd" d="M40.864 75.1206L30.7007 80.9551V92.6241L54.4098 106.238L64.5692 100.403V88.7344L40.864 75.1206Z" stroke="#481549" stroke-width="1.10019" stroke-linecap="round" stroke-linejoin="round"/>
<path d="M71.342 84.845L40.8638 67.3416L23.9276 77.0657L54.4097 94.5692L71.342 84.845Z" fill="white" stroke="#481549" stroke-width="1.10019" stroke-linecap="round" stroke-linejoin="round"/>
<path d="M40.864 71.2308L30.7007 65.3963L40.864 59.5618L51.0234 65.3963L40.864 71.2308Z" fill="#9cede8" stroke="#481549" stroke-width="1.10019" stroke-linecap="round" stroke-linejoin="round"/>
<path d="M37.4774 69.2862L34.087 67.3413L44.2503 61.5068L47.6329 63.4517L37.4774 69.2862Z" fill="white" stroke="#481549" stroke-width="1.10019" stroke-linecap="round" stroke-linejoin="round"/>
<path d="M51.0233 77.066L40.8639 82.9005V71.2315L51.0233 65.397V77.066Z" fill="#9cede8" stroke="#481549" stroke-width="1.10019" stroke-linecap="round" stroke-linejoin="round"/>
<path d="M30.7007 77.066L40.864 82.9005V71.2315L30.7007 65.397V77.066Z" fill="#9cede8" stroke="#481549" stroke-width="1.10019" stroke-linecap="round" stroke-linejoin="round"/>
<path d="M34.087 73.176L37.4774 75.1209V69.2864L34.087 67.3416V73.176Z" fill="white" stroke="#481549" stroke-width="1.10019" stroke-linecap="round" stroke-linejoin="round"/>
<path fill-rule="evenodd" clip-rule="evenodd" d="M51.0234 65.3963L40.864 59.5618L30.7007 65.3963V77.0653L40.864 82.8997L51.0234 77.0653V65.3963Z" stroke="#481549" stroke-width="1.10019" stroke-linecap="round" stroke-linejoin="round"/>
<path d="M54.4097 63.4517L44.2504 57.6172L54.4097 51.7827L64.5691 57.6172L54.4097 63.4517Z" fill="#9cede8" stroke="#481549" stroke-width="1.10019" stroke-linecap="round" stroke-linejoin="round"/>
<path d="M51.0232 61.5066L47.6367 59.5618L57.7961 53.7273L61.1826 55.6721L51.0232 61.5066Z" fill="white" stroke="#481549" stroke-width="1.10019" stroke-linecap="round" stroke-linejoin="round"/>
<path d="M64.5691 84.8448L54.4097 90.6793V63.4517L64.5691 57.6172V84.8448ZM44.2504 84.8448L54.4097 90.6793V63.4517L44.2504 57.6172V84.8448Z" fill="#9cede8"/>
<path d="M54.4097 90.6793L64.5691 84.8448V57.6172L54.4097 63.4517M54.4097 90.6793V63.4517M54.4097 90.6793L44.2504 84.8448V57.6172L54.4097 63.4517" stroke="#481549" stroke-width="1.10019" stroke-linecap="round" stroke-linejoin="round"/>
<path d="M47.6367 65.3963L51.0232 67.3411V61.5066L47.6367 59.5618V65.3963Z" fill="white" stroke="#481549" stroke-width="1.10019" stroke-linecap="round" stroke-linejoin="round"/>
<path d="M23.9276 96.5138V77.0655M71.342 104.293V84.8448M54.4097 114.017V94.569M64.569 57.6172L54.4097 51.7827L44.2503 57.6172V84.8448L54.4097 90.6793L64.569 84.8448V57.6172Z" stroke="#481549" stroke-width="1.10019" stroke-linecap="round" stroke-linejoin="round"/>
<path d="M66.5869 29.2226L74.7168 24.555V12.886L66.5869 17.5536C65.4646 18.1993 64.5574 19.9263 64.5574 21.416V27.6939C64.5691 29.1837 65.4763 29.8683 66.5869 29.2226Z" fill="#9cede8" stroke="#481549" stroke-width="1.10019" stroke-linecap="round" stroke-linejoin="round"/>
<path d="M71.6706 20.4707C72.0141 20.2454 72.2993 19.9428 72.5032 19.5873C72.707 19.2318 72.8237 18.8335 72.8437 18.4247C72.8437 17.6779 72.3236 17.359 71.6706 17.7479L70.4974 18.4208V23.8664V23.8741L71.6706 23.1935C72.0147 22.9689 72.3005 22.6664 72.5044 22.3108C72.7083 21.9551 72.8246 21.5565 72.8437 21.1475C72.8437 20.3968 72.3236 20.0817 71.6706 20.4707ZM71.6706 20.4707L70.4974 21.1475M66.4384 22.1238C66.4593 21.7168 66.5764 21.3205 66.7802 20.967C66.9841 20.6136 67.2689 20.3129 67.6115 20.0895C68.2645 19.7005 68.7846 20.0156 68.7846 20.7663C68.7637 21.1733 68.6466 21.5696 68.4428 21.9231C68.2389 22.2765 67.9541 22.5772 67.6115 22.8006C68.2645 22.4116 68.7846 22.7306 68.7846 23.4813C68.7634 23.8882 68.6462 24.2844 68.4423 24.6378C68.2385 24.9912 67.9539 25.2919 67.6115 25.5156C66.9584 25.9045 66.4384 25.5856 66.4384 24.8388" stroke="white" stroke-width="0.733462" stroke-linecap="round" stroke-linejoin="round"/>
<path d="M78.1148 10.9414L74.7284 12.8862M78.1148 22.6104L74.7284 24.5552" stroke="#481549" stroke-width="1.10019" stroke-linecap="round" stroke-linejoin="round"/>
<path d="M91.8406 87.7388C93.5534 87.7388 95.8293 90.8505 96.6388 93.0209C96.979 92.4842 98.3789 90.2748 99.6146 91.4028C100.397 92.1302 100.365 94.0517 99.8688 95.2536C99.3722 96.4555 98.0856 97.3968 96.9868 97.3968C95.0316 97.3968 93.1858 95.5453 90.9764 91.784C89.6586 89.563 90.1083 87.7388 91.8406 87.7388ZM88.6223 124.842C88.6223 123.069 90.0653 122.423 91.3597 122.676C92.654 122.929 95.6612 124.189 95.6612 125.398C95.6601 125.49 95.6401 125.58 95.6025 125.663C95.3522 126.192 94.4059 126.507 93.4869 126.363L89.905 125.815C89.1229 125.694 88.6145 125.286 88.6262 124.842H88.6223ZM81.6382 128.817C81.6382 127.577 82.2092 126.402 83.1399 126.402C84.6297 126.402 86.0297 128.763 86.0492 130.898C86.0727 131.346 85.5604 131.762 84.7705 131.883C83.8516 132.026 82.9052 131.711 82.6589 131.182L81.6969 129.129C81.6511 129.033 81.6322 128.927 81.6422 128.821L81.6382 128.817Z" fill="#481549" stroke="#481549" stroke-width="1.10019" stroke-linecap="round" stroke-linejoin="round"/>
<path d="M88.1844 110.45C88.1844 110.45 87.5196 110.68 87.4336 111.17C86.718 115.122 84.9427 126.161 84.7198 127.118C84.5712 127.763 83.9377 128.059 83.2377 128.059C82.3735 128.059 82.3578 127.67 82.2679 126.919C82.0919 125.41 81.345 107.331 81.345 105.188C81.345 103.717 81.9316 102.737 82.7332 102.158C84.0315 101.22 86.8627 100.213 89.4905 100.213C91.7821 100.213 93.8311 101.5 93.8311 102.901C93.8311 106.401 91.4849 123.535 91.5865 122.921C91.5243 123.17 91.375 123.39 91.1651 123.54C90.9553 123.691 90.6986 123.762 90.4408 123.741C89.8503 123.741 89.2872 123.566 89.2481 123.014C89.1503 121.528 88.1844 110.45 88.1844 110.45ZM88.1844 110.45C88.5012 110.314 89.2442 110.093 89.2442 110.093L88.1844 110.45Z" fill="#9cede8"/>
<path d="M88.1844 110.45C88.1844 110.45 87.5196 110.68 87.4336 111.17C86.718 115.122 84.9427 126.161 84.7198 127.118C84.5712 127.763 83.9377 128.059 83.2377 128.059C82.3735 128.059 82.3578 127.67 82.2679 126.919C82.0919 125.41 81.345 107.331 81.345 105.188C81.345 103.717 81.9316 102.737 82.7332 102.158C84.0315 101.22 86.8627 100.213 89.4905 100.213C91.7821 100.213 93.8311 101.5 93.8311 102.901C93.8311 106.401 91.4849 123.535 91.5865 122.921C91.5243 123.17 91.375 123.39 91.1651 123.54C90.9553 123.691 90.6986 123.762 90.4408 123.741C89.8503 123.741 89.2872 123.566 89.2481 123.014C89.1503 121.528 88.1844 110.45 88.1844 110.45ZM88.1844 110.45C88.5012 110.314 89.2442 110.093 89.2442 110.093" stroke="#481549" stroke-width="1.10019" stroke-linecap="round" stroke-linejoin="round"/>
<path d="M80.8992 103.655C80.8992 99.4858 82.3108 92.0993 82.3108 92.0993C82.3239 91.9434 82.3722 91.7925 82.4521 91.6578C82.532 91.5231 82.6414 91.4081 82.7723 91.3214L90.3429 86.9766C90.5401 86.8923 90.7559 86.8605 90.9691 86.8844C91.1824 86.9083 91.3857 86.987 91.5591 87.1128C92.0105 87.3966 92.3946 87.7746 92.6849 88.2205C92.9753 88.6664 93.1648 89.1696 93.2406 89.6955C93.2406 89.6955 94.4607 100.906 94.4607 102.955C94.4607 105.476 91.4574 107.666 88.1218 107.666C83.9376 107.65 80.8992 106.596 80.8992 103.655Z" fill="#481549" stroke="#481549" stroke-width="1.10019" stroke-linecap="round" stroke-linejoin="round"/>
<path d="M96.4473 88.1511L98.6684 87.6027C98.713 87.5879 98.7608 87.5851 98.8068 87.5947C98.8528 87.6043 98.8955 87.6258 98.9304 87.6571L99.3958 88.1511C99.4337 88.201 99.458 88.2599 99.4662 88.3219C99.4744 88.384 99.4663 88.4471 99.4427 88.5051L97.8785 93.8728C97.8328 94.0176 97.7539 94.15 97.6481 94.2593C97.5422 94.3686 97.4123 94.452 97.2685 94.5029L95.0512 95.0514C95.0067 95.0666 94.9588 95.0695 94.9127 95.0599C94.8666 95.0503 94.824 95.0286 94.7892 94.9969L94.32 94.5146C94.2827 94.4643 94.2591 94.4053 94.2516 94.3432C94.2441 94.2812 94.2528 94.2183 94.277 94.1606L95.8412 88.7929C95.8846 88.6462 95.9621 88.5116 96.0673 88.4002C96.1726 88.2887 96.3028 88.2034 96.4473 88.1511Z" fill="white" stroke="#481549" stroke-width="1.10019" stroke-linecap="round" stroke-linejoin="round"/>
<path d="M98.4806 91.7994C98.0133 92.1404 97.4527 92.3317 96.8734 92.3478C96.0248 92.4373 95.7941 93.5147 96.3376 94.1954C96.8812 94.8761 97.6828 94.9928 98.7973 94.4054C100.01 93.7636 100.193 92.624 99.8922 91.9511C99.8056 91.6927 99.6548 91.4603 99.4538 91.2754C99.2529 91.0904 99.0082 90.9589 98.7426 90.8931L98.4806 91.7994ZM84.4772 108.319C84.3247 108.004 80.8718 101.119 80.8718 101.119C80.8611 101.093 80.848 101.068 80.8326 101.045C80.3634 100.15 79.3819 99.7382 78.6389 100.123C77.8959 100.508 77.673 101.547 78.1423 102.457L78.1853 102.531L82.0644 109.287C81.9746 109.501 81.937 109.733 81.955 109.964C81.9695 110.159 82.0226 110.35 82.1113 110.525C82.1999 110.7 82.3224 110.856 82.4717 110.984C82.621 111.112 82.7942 111.209 82.9814 111.27C83.1685 111.331 83.366 111.355 83.5624 111.34C83.7588 111.325 83.9504 111.272 84.1261 111.184C84.3018 111.095 84.4582 110.973 84.5864 110.824C84.7146 110.675 84.8121 110.503 84.8732 110.317C84.9343 110.13 84.9579 109.934 84.9425 109.738C84.8668 109.243 84.7096 108.763 84.4772 108.319Z" fill="white" stroke="#481549" stroke-width="1.10019" stroke-linecap="round" stroke-linejoin="round"/>
<path d="M82.2952 91.6014C81.2551 92.3093 78.111 98.6806 77.6418 99.8397C77.4452 100.268 77.3474 100.735 77.3555 101.206C77.3636 101.677 77.4775 102.141 77.6887 102.562C78.1462 103.434 80.7389 107.693 81.3294 108.51C81.7791 109.128 82.7723 109.105 83.4566 108.79C84.2857 108.401 84.5555 107.72 84.3091 107.102C83.4527 104.978 81.345 101.116 81.345 101.116C81.345 101.116 83.527 98.8051 84.4734 96.9147C85.0177 95.8328 85.196 94.6049 84.9817 93.414C84.8058 92.321 83.7695 90.5979 82.2952 91.6014Z" fill="#481549" stroke="#481549" stroke-width="1.10019" stroke-linecap="round" stroke-linejoin="round"/>
<path d="M86.3894 88.8435C85.4822 89.4775 85.5682 90.2516 86.233 90.7883C87.5743 91.8813 89.9675 93.3438 90.7653 96.2844C90.8669 90.6561 90.9217 89.9287 90.2373 89.1313" stroke="#9cede8" stroke-width="0.733462" stroke-linecap="round" stroke-linejoin="round"/>
<path d="M85.0287 83.0944C85.0125 82.5931 85.0977 82.0937 85.2794 81.6258C85.461 81.158 85.7353 80.7312 86.0861 80.3709C86.4368 80.0106 86.8568 79.7241 87.3211 79.5284C87.7854 79.3328 88.2844 79.2319 88.7887 79.2319C89.2929 79.2319 89.792 79.3328 90.2562 79.5284C90.7205 79.7241 91.1405 80.0106 91.4912 80.3709C91.842 80.7312 92.1163 81.158 92.298 81.6258C92.4796 82.0937 92.5648 82.5931 92.5486 83.0944V86.4668C92.5481 87.1993 92.3314 87.9156 91.9255 88.5269C91.5195 89.1381 90.9421 89.6174 90.2649 89.9052C90.1429 90.1294 89.9563 90.3123 89.7291 90.4303C89.254 90.672 88.7279 90.7981 88.1943 90.7981C87.6606 90.7981 87.1346 90.672 86.6594 90.4303C86.4843 90.3532 86.333 90.2312 86.221 90.0767C86.109 89.9222 86.0403 89.7409 86.022 89.5513V88.995C85.3831 88.3065 85.0285 87.4038 85.0287 86.4668V83.0944Z" fill="white" stroke="#481549" stroke-width="1.10019" stroke-linecap="round" stroke-linejoin="round"/>
<path d="M91.9462 86.7934C92.3881 86.7934 92.6462 86.6417 92.6462 86.2605C92.6462 85.5876 91.8367 85.0042 91.8367 85.0042" fill="white"/>
<path d="M91.9462 86.7934C92.3881 86.7934 92.6462 86.6417 92.6462 86.2605C92.6462 85.5876 91.8367 85.0042 91.8367 85.0042" stroke="#481549" stroke-width="0.733462" stroke-linecap="round" stroke-linejoin="round"/>
<path d="M90.8318 97.3964C90.8405 97.0258 90.8196 96.6551 90.7692 96.2878" stroke="#9cede8" stroke-width="0.733462" stroke-linecap="round" stroke-linejoin="round"/>
<path d="M88.2704 78.427C90.4094 78.427 90.5541 82.4567 90.1317 82.4567C89.8694 82.4565 89.6147 82.3689 89.4083 82.2078C89.3582 82.3817 89.2524 82.5346 89.107 82.6434C88.9617 82.7522 88.7847 82.8109 88.6028 82.8107H88.5441V82.869C88.5434 83.0704 88.4699 83.2649 88.3372 83.417C88.2044 83.569 88.0211 83.6686 87.8207 83.6975C87.8228 83.7234 87.8228 83.7494 87.8207 83.7753C87.8207 83.8782 87.7932 83.9793 87.741 84.0682C87.6888 84.1571 87.6137 84.2305 87.5235 84.2809C87.5887 84.3523 87.6249 84.4452 87.6251 84.5416C87.625 84.601 87.6112 84.6595 87.5847 84.7128C87.5583 84.7661 87.52 84.8126 87.4726 84.8488C87.5028 84.8952 87.519 84.9492 87.5196 85.0044C87.5185 85.0791 87.488 85.1503 87.4346 85.2027C87.3812 85.2551 87.3091 85.2845 87.2341 85.2845C87.1831 85.2846 87.133 85.2709 87.0892 85.2448C87.0454 85.2188 87.0095 85.1814 86.9854 85.1367C86.9613 85.0919 86.9499 85.0415 86.9524 84.9908C86.9548 84.9401 86.9711 84.891 86.9995 84.8488C86.9567 84.8163 86.9211 84.7754 86.8949 84.7286C86.8688 84.6818 86.8526 84.6301 86.8475 84.5768C86.8423 84.5235 86.8483 84.4697 86.865 84.4188C86.8818 84.3679 86.9089 84.3209 86.9447 84.2809C86.8208 84.2122 86.7274 84.0998 86.6827 83.9659C86.5028 83.6547 86.3542 83.3591 85.9515 83.3591C85.7499 83.3936 85.5675 83.499 85.4376 83.656C85.3077 83.8131 85.2388 84.0115 85.2437 84.2148C85.2437 84.7555 85.4157 85.0667 85.4157 85.4167C85.4157 85.7668 85.2867 85.9885 85.0247 85.9885C84.6724 85.4415 84.4459 84.8239 84.3614 84.1797C84.2769 83.5356 84.3365 82.8808 84.5359 82.2622C85.0912 80.3485 86.1392 78.427 88.2704 78.427Z" fill="white" stroke="#481549" stroke-width="1.10019" stroke-linecap="round" stroke-linejoin="round"/>
<path d="M92.6932 80.3135L91.7077 78.4737C91.5489 78.1836 91.3253 77.9335 91.0541 77.7427C90.783 77.5519 90.4715 77.4254 90.1436 77.3729L88.2079 77.0734C87.8643 77.0202 87.5131 77.0451 87.1806 77.1461C86.8481 77.2472 86.5428 77.4218 86.2878 77.6569L84.7628 79.0571C84.5947 79.2119 84.4654 79.4037 84.3853 79.6172C84.3051 79.8306 84.2764 80.0598 84.3013 80.2863L84.446 81.6204C84.5086 82.1767 84.9778 82.6823 85.846 83.0168C86.8256 83.3323 87.8612 83.4383 88.8849 83.3276C89.9086 83.217 90.8973 82.8924 91.7859 82.375C92.7401 81.741 93.0412 81.0681 92.6932 80.3135Z" fill="#9cede8" stroke="#481549" stroke-width="1.10019" stroke-linecap="round" stroke-linejoin="round"/>
<path d="M87.8051 83.4835C87.6057 83.3551 87.504 83.1257 87.6643 82.9467C88.4247 82.1004 89.3371 81.4026 90.3547 80.8891C91.4927 80.2862 92.5329 80.2745 92.9708 80.4535C93.4088 80.6324 94.6954 80.9747 95.1529 81.1964C95.3484 81.2897 95.2154 81.4803 95.0551 81.5309C94.4929 81.6078 93.957 81.8157 93.4909 82.1377C92.9112 82.5197 92.3738 82.9617 91.8876 83.4563C91.3245 83.9542 91.0195 84.1253 90.1788 84.0008C89.338 83.8764 88.1962 83.7247 87.8051 83.4835Z" fill="#9cede8" stroke="#481549" stroke-width="1.10019" stroke-linecap="round" stroke-linejoin="round"/>
<path d="M90.7771 100.598L92.4351 100.03C92.5124 99.9999 92.5779 99.9458 92.6222 99.8758C92.6665 99.8059 92.6873 99.7237 92.6815 99.6413L92.1966 96.7746C92.1919 96.7371 92.1785 96.7012 92.1574 96.6698C92.1363 96.6384 92.108 96.6123 92.0749 96.5938C92.0418 96.5752 92.0047 96.5647 91.9668 96.563C91.9288 96.5613 91.891 96.5685 91.8563 96.584L90.2491 97.1791C90.1719 97.2095 90.1063 97.2636 90.062 97.3335C90.0177 97.4035 89.997 97.4856 90.0028 97.5681L90.4329 100.404C90.4383 100.441 90.4524 100.477 90.4739 100.509C90.4954 100.54 90.5238 100.566 90.557 100.585C90.5903 100.604 90.6274 100.615 90.6655 100.617C90.7036 100.619 90.7418 100.613 90.7771 100.598Z" fill="white"/>
<path fill-rule="evenodd" clip-rule="evenodd" d="M90.7771 100.598L92.4351 100.03C92.5124 99.9999 92.5779 99.9458 92.6222 99.8758C92.6665 99.8059 92.6873 99.7237 92.6815 99.6413L92.1966 96.7746C92.1919 96.7371 92.1785 96.7012 92.1574 96.6698C92.1363 96.6384 92.108 96.6123 92.0749 96.5938C92.0418 96.5752 92.0047 96.5647 91.9668 96.563C91.9288 96.5613 91.891 96.5685 91.8563 96.584L90.2491 97.1791C90.1719 97.2095 90.1063 97.2636 90.062 97.3335C90.0177 97.4035 89.997 97.4856 90.0028 97.5681L90.4329 100.404C90.4383 100.441 90.4524 100.477 90.4739 100.509C90.4954 100.54 90.5238 100.566 90.557 100.585C90.5903 100.604 90.6274 100.615 90.6655 100.617C90.7036 100.619 90.7418 100.613 90.7771 100.598Z" stroke="#481549" stroke-width="0.733462" stroke-linecap="round" stroke-linejoin="round"/>
<path d="M83.6678 105.654L81.345 101.107C81.345 101.107 83.9455 98.5752 84.4734 96.9065" stroke="#9cede8" stroke-width="0.733462" stroke-linecap="round" stroke-linejoin="round"/>
<path d="M21.3898 99.1355L25.1087 97.0001C25.2463 96.921 25.4025 96.8793 25.5614 96.8792C25.7203 96.879 25.8766 96.9204 26.0144 96.9992C26.1522 97.0779 26.2668 97.1914 26.3466 97.328C26.4265 97.4647 26.4689 97.6199 26.4695 97.778V99.151C26.4687 99.8405 26.2422 100.511 25.8243 101.061L21.3898 106.915" stroke="#481549" stroke-width="1.10019" stroke-linecap="round" stroke-linejoin="round"/>
<path d="M24.7763 136.087L21.3898 138.032V106.915L24.7763 104.97V136.087Z" fill="#B2B2B2" stroke="#481549" stroke-width="1.10019" stroke-linecap="round" stroke-linejoin="round"/>
<path d="M18.0033 101.08L14.0499 103.352C13.707 103.549 13.4225 103.833 13.2248 104.174C13.0271 104.516 12.9232 104.903 12.9237 105.297V106.335C12.9224 106.8 13.0866 107.25 13.3872 107.606C13.6879 107.962 14.1055 108.201 14.566 108.28L18.0033 108.867" stroke="#481549" stroke-width="1.10019" stroke-linecap="round" stroke-linejoin="round"/>
<path d="M18.0044 101.082L21.3909 99.1367L24.7773 104.971L21.3909 106.916L18.0044 101.082ZM21.3897 138.032L18.0032 136.087V101.08L21.3897 106.915V138.032Z" fill="#B2B2B2" stroke="#481549" stroke-width="1.10019" stroke-linecap="round" stroke-linejoin="round"/>
<path d="M18.8479 131.712L27.3141 126.85L31.5491 128.308V132.198L14.6168 141.922V138.032L18.8479 131.712Z" fill="white" stroke="#481549" stroke-width="1.10019" stroke-linecap="round" stroke-linejoin="round"/>
<path d="M21.3897 141.922L48.4814 159.425L45.095 161.37L18.0033 143.867L21.3897 141.922ZM34.9356 134.143L62.0273 151.646L58.6408 153.591L31.5491 136.087L34.9356 134.143ZM18.0033 143.867L45.095 161.37V163.315L18.0033 147.756L14.6168 141.922L18.0033 143.867Z" fill="#9cede8"/>
<path d="M45.095 161.37L48.4814 159.425L21.3897 141.922L18.0033 143.867M45.095 161.37L18.0033 143.867M45.095 161.37V163.315L18.0033 147.756L14.6168 141.922L18.0033 143.867M34.9356 134.143L62.0273 151.646L58.6408 153.591L31.5491 136.087L34.9356 134.143Z" stroke="#481549" stroke-width="1.10019" stroke-linecap="round" stroke-linejoin="round"/>
<path d="M41.2127 162.461C41.8748 162.081 41.8758 160.85 41.215 159.711C40.5541 158.573 39.4816 157.958 38.8195 158.338C38.1574 158.719 38.1564 159.95 38.8173 161.088C39.4781 162.227 40.5506 162.842 41.2127 162.461Z" fill="white" stroke="#481549" stroke-width="1.10019" stroke-linecap="round" stroke-linejoin="round"/>
<path d="M18.1672 149.499C19.163 148.929 19.1657 147.075 18.1733 145.358C17.1809 143.64 15.5691 142.709 14.5733 143.279C13.5776 143.848 13.5748 145.702 14.5673 147.419C15.5597 149.137 17.1715 150.068 18.1672 149.499Z" fill="white" stroke="#481549" stroke-width="1.10386" stroke-linecap="round" stroke-linejoin="round"/>
<path d="M31.5492 136.087L58.6409 153.591V155.536L28.1627 138.032L31.5492 136.087Z" fill="#9cede8" stroke="#481549" stroke-width="1.10019" stroke-linecap="round" stroke-linejoin="round"/>
<path d="M54.969 155.296C55.6341 154.916 55.6375 153.68 54.9767 152.536C54.3158 151.393 53.2409 150.774 52.5758 151.154C51.9107 151.534 51.9073 152.77 52.5681 153.913C53.229 155.057 54.3039 155.676 54.969 155.296Z" fill="white" stroke="#481549" stroke-width="1.10386" stroke-linecap="round" stroke-linejoin="round"/>
<path d="M31.7706 141.688C32.7664 141.119 32.7691 139.265 31.7767 137.547C30.7842 135.83 29.1725 134.899 28.1767 135.468C27.1809 136.037 27.1782 137.891 28.1706 139.609C29.163 141.326 30.7748 142.257 31.7706 141.688Z" fill="white" stroke="#481549" stroke-width="1.10386" stroke-linecap="round" stroke-linejoin="round"/>
<path d="M22.2344 133.657L30.7005 128.794L34.9355 130.253V134.143L18.0032 143.867V139.977L22.2344 133.657ZM34.9355 130.253L31.5491 128.308L27.314 126.85L30.7005 128.794L34.9355 130.253Z" fill="#9cede8"/>
<path d="M30.7005 128.794L22.2344 133.657L18.0032 139.977V143.867L34.9355 134.143V130.253M30.7005 128.794L34.9355 130.253M30.7005 128.794L27.314 126.85L31.5491 128.308L34.9355 130.253" stroke="#481549" stroke-width="1.10019" stroke-linecap="round" stroke-linejoin="round"/>
<path d="M18.848 131.712L22.2345 133.657L30.7006 128.794L27.3142 126.85L18.848 131.712Z" fill="#9cede8" stroke="#481549" stroke-width="1.10019" stroke-linecap="round" stroke-linejoin="round"/>
<path d="M14.6168 138.032L18.0033 139.977L22.2344 133.656L18.8479 131.711L14.6168 138.032Z" fill="#9cede8" stroke="#481549" stroke-width="1.10019" stroke-linecap="round" stroke-linejoin="round"/>
<path d="M14.6168 141.922L18.0033 143.867V139.977L14.6168 138.032V141.922ZM62.0273 153.591L58.6408 155.536V153.591L62.0273 151.646V153.591ZM48.4814 161.37L45.095 163.315V161.37L48.4814 159.425V161.37Z" fill="#9cede8" stroke="#481549" stroke-width="1.10019" stroke-linecap="round" stroke-linejoin="round"/>
</svg>
